<?xml version="1.0" standalone="no"?>
<!DOCTYPE svg PUBLIC "-//W3C//DTD SVG 20010904//EN"
 "http://www.w3.org/TR/2001/REC-SVG-20010904/DTD/svg10.dtd">
<svg version="1.0" xmlns="http://www.w3.org/2000/svg"
 width="588.000000pt" height="645.000000pt" viewBox="0 0 588.000000 645.000000"
 preserveAspectRatio="xMidYMid meet">

<g transform="translate(0.000000,645.000000) scale(0.100000,-0.100000)"
fill="#000000" stroke="none">
<path d="M1674 5518 l-1302 -741 -5 -136 c-4 -75 -8 -754 -9 -1510 l-3 -1374
1300 -759 1300 -759 30 15 c16 8 606 343 1310 744 l1280 730 7 1503 c5 1140 4
1507 -5 1515 -16 15 -2586 1514 -2595 1514 -4 0 -593 -334 -1308 -742z m2540
-153 l1217 -710 -6 -1415 c-4 -778 -10 -1418 -13 -1422 -4 -4 -557 -320 -1230
-703 l-1223 -696 -656 383 c-361 211 -911 532 -1222 713 l-566 331 -2 424 c-2
234 1 872 5 1419 l7 994 1225 698 c674 384 1230 698 1236 696 6 -1 558 -321
1228 -712z"/>
<path d="M2210 4555 l0 -625 -625 0 -625 0 0 -680 0 -680 443 0 444 0 899 688
899 687 3 618 2 617 -720 0 -720 0 0 -625z"/>
<path d="M3707 3907 c82 -67 1175 -898 1177 -895 2 1 6 209 10 461 l7 457
-611 0 -612 0 29 -23z"/>
<path d="M2818 3208 l-827 -633 124 -3 125 -3 0 -674 0 -675 745 0 745 0 0
675 0 675 580 0 580 0 0 164 0 163 -610 467 c-336 257 -616 469 -623 472 -7 2
-385 -280 -839 -628z m626 101 c22 -6 56 -21 75 -34 l36 -22 55 31 c49 28 64
31 135 31 65 0 89 -5 127 -24 169 -86 211 -311 85 -449 -55 -59 -108 -84 -188
-90 -72 -5 -144 13 -188 47 -24 18 -25 18 -59 -5 -68 -47 -187 -58 -278 -27
-66 22 -145 101 -167 167 -78 229 130 441 367 375z"/>
<path d="M3688 3270 c-21 -6 -55 -21 -76 -35 l-39 -25 26 -53 c36 -71 37 -181
3 -246 -13 -24 -21 -50 -18 -57 3 -7 24 -23 48 -36 59 -31 166 -32 223 -1 214
114 156 430 -85 457 -25 2 -62 1 -82 -4z"/>
<path d="M3270 3257 c-84 -45 -125 -97 -142 -180 -21 -100 33 -211 126 -260
74 -38 184 -25 247 29 14 13 13 19 -10 67 -37 74 -37 171 0 245 l27 53 -41 27
c-32 21 -54 27 -111 30 -46 2 -80 -2 -96 -11z"/>
<path d="M3527 3137 c-27 -55 -31 -109 -13 -170 9 -31 21 -59 26 -62 14 -9 40
50 47 104 5 47 -17 144 -37 156 -4 3 -15 -10 -23 -28z"/>
</g>
</svg>
