<?xml version="1.0" standalone="no"?>
<!DOCTYPE svg PUBLIC "-//W3C//DTD SVG 20010904//EN"
 "http://www.w3.org/TR/2001/REC-SVG-20010904/DTD/svg10.dtd">
<svg version="1.0" xmlns="http://www.w3.org/2000/svg"
 width="1200.000000pt" height="1348.000000pt" viewBox="0 0 1200.000000 1348.000000"
 preserveAspectRatio="xMidYMid meet">

<g transform="translate(0.000000,1348.000000) scale(0.100000,-0.100000)"
fill="#000000" stroke="none">
<path d="M1637 13373 c-7 -128 -32 -224 -90 -342 -102 -210 -310 -416 -571
-566 -270 -154 -643 -278 -883 -292 -88 -6 -93 -7 -93 -28 0 -13 34 -112 76
-221 358 -939 589 -1885 683 -2804 40 -384 46 -517 45 -985 0 -489 -10 -681
-59 -1100 -63 -553 -140 -956 -355 -1865 -165 -698 -210 -961 -210 -1229 0
-251 38 -397 152 -587 235 -392 602 -762 1063 -1073 487 -329 985 -570 2040
-986 938 -370 1179 -472 1560 -660 369 -182 666 -365 913 -563 l92 -74 53 44
c221 187 533 384 911 575 352 177 626 293 1776 748 726 287 1209 514 1615 758
576 345 1000 738 1285 1192 83 131 115 201 147 321 24 90 26 117 27 294 2 302
-28 476 -219 1290 -240 1023 -321 1490 -381 2190 -21 252 -30 959 -15 1227 63
1120 322 2276 755 3373 25 63 46 125 46 138 0 20 -4 22 -62 22 -194 0 -572
113 -828 247 -472 247 -724 572 -756 976 l-7 87 -4352 0 -4352 0 -6 -107z
m4458 -696 l92 -282 306 -5 305 -5 -239 -174 c-132 -96 -242 -178 -245 -182
-3 -5 36 -135 86 -290 50 -155 90 -283 88 -285 -2 -2 -112 75 -244 171 -131
96 -244 173 -251 171 -6 -3 -117 -82 -246 -175 -129 -94 -237 -171 -240 -171
-2 0 38 129 89 288 52 158 94 288 94 289 0 1 -111 82 -246 180 l-245 178 305
3 304 2 85 263 c47 144 89 275 93 290 3 15 9 25 12 22 4 -3 47 -133 97 -288z
m-1579 -326 c17 -10 36 -33 44 -50 12 -30 15 -31 70 -31 48 0 64 -5 89 -26 27
-22 31 -32 31 -74 0 -40 -6 -57 -35 -94 -33 -44 -34 -46 -20 -80 21 -50 19
-70 -11 -105 -31 -37 -40 -38 -73 -7 -15 14 -51 40 -82 58 -53 32 -56 35 -42
54 16 20 36 63 47 101 6 19 0 24 -49 42 -31 12 -64 21 -74 21 -17 0 -19 10
-23 83 -5 85 1 103 37 117 32 14 58 11 91 -9z m2952 -37 c91 -34 161 -85 252
-182 l80 -85 -24 54 c-14 30 -32 82 -40 117 l-15 63 22 -15 c12 -9 47 -30 77
-48 119 -70 157 -127 145 -216 -5 -42 -3 -49 17 -61 13 -8 33 -20 45 -28 l21
-14 -14 47 c-8 27 -17 80 -21 118 l-6 71 39 -36 c21 -20 63 -58 92 -85 69 -62
86 -94 79 -153 -2 -25 -7 -53 -10 -61 -4 -10 13 -30 51 -60 31 -25 59 -46 63
-48 4 -2 1 18 -7 44 -15 50 -20 229 -6 238 9 5 118 -128 145 -176 24 -46 21
-105 -7 -155 l-24 -41 55 -48 c47 -40 54 -43 48 -23 -25 76 -32 202 -16 274
l7 30 13 -25 c8 -13 35 -51 61 -85 26 -33 55 -75 65 -94 24 -48 22 -118 -5
-171 l-22 -43 42 -41 c27 -26 40 -34 35 -21 -12 30 -18 265 -8 303 l8 34 26
-39 c14 -21 49 -71 79 -111 29 -41 62 -97 71 -125 l18 -52 2 60 c1 54 15 137
18 108 0 -6 33 -60 73 -120 82 -124 107 -176 108 -217 0 -48 14 -19 26 52 8
51 12 62 19 47 4 -11 33 -61 62 -112 30 -50 65 -117 78 -149 l23 -56 16 58
c26 92 27 93 41 54 7 -19 27 -64 45 -100 18 -36 45 -98 60 -139 l27 -74 24 69
c15 44 24 62 27 49 2 -11 24 -81 49 -155 69 -205 62 -295 -32 -398 l-37 -41
33 -58 34 -58 11 86 c15 111 36 184 86 292 42 88 58 106 58 63 0 -14 14 -82
31 -153 47 -192 29 -287 -69 -373 l-43 -38 53 -96 53 -97 6 103 c8 130 28 207
87 332 44 93 47 98 54 70 4 -16 19 -76 34 -134 37 -145 37 -228 1 -302 -26
-54 -62 -93 -117 -129 l-24 -16 44 -96 45 -95 7 84 c8 106 36 193 100 314 58
111 68 124 68 89 0 -14 16 -81 35 -150 24 -84 36 -146 36 -192 l1 -68 35 55
c37 60 53 70 53 32 0 -13 14 -70 31 -127 36 -117 48 -237 30 -292 -17 -50 -82
-120 -151 -162 l-58 -35 36 -110 36 -109 17 85 c22 106 67 202 150 318 l64 89
8 -49 c4 -27 19 -99 32 -160 29 -131 30 -153 9 -223 -19 -67 -84 -134 -169
-176 -33 -17 -61 -30 -62 -30 -1 0 11 -47 26 -104 l27 -103 13 44 c22 75 89
191 164 285 65 83 72 89 74 65 2 -15 10 -78 19 -141 10 -64 14 -145 12 -187
-4 -64 -10 -81 -39 -125 -32 -48 -123 -119 -170 -134 -23 -8 -23 -29 2 -144
l11 -53 23 56 c37 90 83 160 178 267 49 54 89 99 90 99 4 0 11 -234 10 -308
-1 -56 -7 -85 -26 -124 l-25 -50 48 47 47 47 0 -64 c0 -34 1 -119 3 -188 3
-133 -2 -157 -47 -222 -29 -43 -106 -97 -175 -123 -48 -18 -48 -18 -48 -65 0
-26 3 -75 7 -109 l6 -63 37 71 c48 91 99 156 202 258 l83 83 0 -193 c0 -159
-3 -201 -18 -244 -31 -89 -110 -154 -237 -194 l-55 -17 -6 -58 c-4 -33 -7 -81
-8 -109 l-1 -50 27 45 c47 80 110 156 199 239 48 45 88 80 89 79 1 -2 -2 -91
-5 -198 -5 -151 -10 -204 -24 -234 -39 -92 -102 -144 -218 -181 -37 -12 -70
-24 -72 -26 -6 -5 -27 -202 -22 -206 1 -2 20 22 41 53 41 60 173 188 250 243
l48 35 -7 -35 c-4 -19 -11 -95 -16 -169 -5 -74 -16 -158 -25 -187 -32 -108
-115 -177 -255 -211 l-74 -18 -18 -110 c-9 -60 -16 -113 -15 -117 1 -5 21 14
44 41 53 62 162 145 283 215 52 30 96 54 98 53 1 -2 -6 -23 -17 -47 -11 -24
-33 -99 -50 -165 -53 -208 -92 -273 -195 -324 -49 -24 -84 -34 -143 -39 l-77
-6 -26 -110 c-15 -60 -30 -123 -34 -140 -7 -28 -4 -26 52 27 77 74 181 140
311 199 58 26 107 46 109 45 1 -2 -9 -23 -22 -47 -13 -24 -41 -91 -61 -149
-64 -180 -107 -247 -189 -295 -47 -27 -148 -47 -220 -43 l-49 3 -62 -195 c-33
-107 -74 -228 -88 -269 l-28 -74 25 -26 c44 -48 60 -92 61 -164 0 -67 -2 -71
-110 -284 -83 -162 -119 -223 -147 -248 -42 -35 -96 -55 -152 -55 -35 0 -36
-1 -29 -28 15 -52 8 -137 -14 -175 -44 -74 -267 -369 -301 -396 -42 -35 -109
-55 -160 -49 l-38 6 0 -53 c-2 -92 -27 -127 -217 -299 -94 -86 -187 -163 -206
-172 -78 -37 -175 -26 -235 27 -35 30 -73 31 -62 2 25 -64 13 -150 -30 -215
-30 -47 -392 -291 -456 -308 -53 -15 -121 -6 -165 20 -19 11 -36 20 -38 20 -2
0 -9 -19 -15 -42 -16 -59 -53 -113 -98 -143 -46 -31 -440 -135 -509 -135 -61
1 -120 27 -160 73 l-32 37 -11 -41 c-13 -48 -69 -113 -121 -140 -47 -23 -459
-74 -525 -64 -67 10 -123 53 -165 127 l-17 28 -12 -30 c-18 -45 -92 -105 -146
-120 -68 -19 -486 28 -554 63 -48 25 -107 100 -117 150 l-6 28 -28 -34 c-37
-45 -106 -77 -166 -77 -53 0 -440 97 -489 123 -63 32 -124 128 -124 192 0 17
-1 17 -18 2 -24 -22 -97 -47 -137 -47 -18 0 -47 5 -66 12 -38 13 -405 255
-431 285 -10 10 -27 41 -39 68 -18 40 -21 60 -16 117 6 76 -3 91 -36 60 -12
-12 -44 -31 -71 -43 -57 -25 -131 -22 -186 6 -55 28 -368 323 -391 368 -12 22
-24 66 -26 97 -5 53 -7 56 -29 52 -43 -8 -112 8 -153 36 -50 34 -313 386 -330
442 -14 46 -14 110 -1 144 9 26 9 26 -36 26 -56 0 -109 22 -153 63 -22 21 -71
108 -142 250 -97 195 -109 224 -109 270 1 86 39 162 99 200 l25 15 22 -88 c12
-49 20 -97 17 -108 -5 -20 186 -414 207 -427 24 -15 19 3 -10 40 -44 55 -40
104 11 130 37 20 66 8 113 -46 20 -23 36 -37 36 -30 0 6 -46 102 -101 213 -92
182 -102 208 -111 280 -5 44 -7 82 -4 85 12 12 101 -32 135 -67 23 -24 73
-113 139 -247 108 -217 120 -258 99 -335 -7 -27 -6 -28 35 -28 56 -1 114 -28
159 -76 45 -50 251 -330 274 -373 9 -18 19 -56 22 -85 l5 -51 57 -1 c31 0 70
-8 87 -17 55 -29 373 -326 396 -370 17 -32 22 -60 23 -114 0 -45 4 -74 11 -77
7 -3 27 6 47 19 53 37 117 50 175 36 49 -13 367 -215 430 -275 38 -35 72 -95
72 -126 0 -24 -2 -24 51 0 24 11 61 20 82 20 45 0 424 -94 482 -119 49 -22
109 -86 125 -135 l12 -37 19 25 c29 37 115 76 168 76 70 0 442 -47 475 -59 41
-16 77 -47 107 -92 l27 -39 12 30 c14 33 55 72 102 96 29 15 402 64 488 64 55
0 115 -27 153 -68 l29 -30 32 61 c46 89 79 106 337 173 228 59 273 63 339 31
35 -18 49 -11 50 22 0 8 12 34 26 58 21 36 59 66 222 175 108 72 217 138 242
145 66 20 149 2 203 -45 28 -24 41 -2 38 67 -3 69 16 122 62 170 70 73 327
300 359 317 19 10 56 18 90 18 l58 1 0 40 c1 22 7 56 14 75 11 32 237 350 289
407 30 33 101 63 151 63 l45 0 -11 31 c-23 66 -6 122 101 335 56 112 114 219
131 237 16 18 48 42 72 52 24 11 44 20 46 21 2 1 -2 38 -9 81 -14 90 -7 145
22 174 23 23 44 16 100 -37 l35 -34 50 142 c62 181 60 168 31 168 -34 0 -101
25 -135 50 -40 30 -68 84 -81 155 -12 68 -10 385 2 385 4 0 47 -39 96 -87 94
-95 144 -177 177 -288 l17 -60 33 110 c18 61 33 117 33 126 1 12 -12 18 -51
22 -78 10 -136 50 -172 119 -27 54 -29 67 -37 229 -4 95 -11 185 -14 201 -4
15 -4 28 0 28 29 0 172 -132 221 -204 30 -44 78 -147 88 -190 4 -15 9 -27 11
-25 5 6 56 232 53 234 -2 2 -30 10 -63 20 -82 23 -113 40 -163 88 -69 67 -83
120 -102 367 -5 69 -12 136 -16 149 -6 22 -2 20 51 -19 40 -30 56 -37 50 -24
-23 55 -35 131 -44 282 -5 92 -13 178 -17 191 -6 21 -5 22 14 12 88 -47 218
-182 271 -281 35 -65 76 -199 87 -285 l8 -60 7 40 c9 53 41 357 37 359 -2 1
-35 14 -74 30 -136 51 -228 138 -255 239 -6 22 -17 97 -25 166 -7 69 -16 137
-20 150 l-7 25 46 -27 46 -27 -29 62 c-18 39 -35 101 -45 163 -22 137 -43 255
-51 283 -6 20 2 17 61 -24 148 -103 251 -223 324 -374 l41 -84 0 86 c0 47 -3
119 -6 161 l-7 75 -46 13 c-67 18 -164 63 -217 100 -57 42 -116 129 -137 205
-18 66 -49 265 -43 272 9 8 149 -92 214 -152 77 -73 139 -157 187 -256 33 -69
35 -72 30 -35 -3 22 -12 94 -20 160 -21 157 -20 155 -58 155 -48 0 -159 33
-209 63 -95 56 -161 160 -196 315 -11 45 -17 82 -13 82 13 0 216 -122 260
-156 25 -20 74 -66 108 -102 l61 -66 -13 70 c-26 130 -28 139 -37 157 -6 11
-21 17 -46 17 -45 0 -121 20 -184 48 -63 28 -138 104 -171 174 -22 46 -67 200
-67 231 0 12 110 -47 207 -112 49 -33 120 -92 156 -131 37 -39 67 -67 67 -63
0 5 -16 62 -35 128 -19 66 -35 120 -35 121 0 1 -33 4 -73 7 -156 13 -266 70
-333 172 -39 58 -109 248 -94 253 15 5 172 -72 250 -122 39 -26 101 -75 136
-109 35 -35 64 -61 64 -58 0 3 -23 67 -51 142 l-51 138 -66 6 c-176 16 -293
87 -360 220 -16 33 -72 195 -72 210 0 9 158 -68 233 -113 43 -26 103 -69 133
-95 l54 -49 -44 94 c-24 51 -51 109 -60 128 l-17 35 -112 0 c-103 0 -116 3
-166 28 -79 42 -135 106 -188 214 -25 52 -43 96 -41 98 9 9 156 -38 237 -76
46 -21 105 -55 132 -74 52 -37 61 -36 29 5 -11 14 -20 28 -20 32 0 3 -18 38
-40 76 l-40 70 -109 -6 c-84 -4 -119 -1 -156 11 -94 32 -173 114 -241 249
l-33 66 62 -14 c152 -35 244 -71 324 -124 25 -17 47 -29 49 -27 2 2 -23 41
-55 87 l-59 84 -123 1 c-115 0 -128 2 -175 27 -60 32 -138 113 -178 187 l-28
53 53 -7 c77 -10 223 -59 297 -99 35 -19 59 -29 54 -23 -22 29 -126 163 -131
169 -4 4 -33 0 -66 -8 -40 -11 -86 -15 -135 -12 -132 8 -218 68 -315 221 l-18
28 64 -7 c97 -10 243 -50 311 -84 34 -16 63 -30 66 -30 2 0 -13 19 -34 43 -22
23 -62 68 -91 99 l-51 58 -83 -21 c-99 -26 -182 -21 -256 12 -46 22 -170 135
-192 178 -11 20 -9 20 56 15 124 -9 217 -26 297 -54 l79 -28 -96 96 -96 96
-48 -26 c-124 -67 -243 -74 -350 -19 -66 34 -172 125 -160 137 5 5 84 9 175 9
165 0 172 -1 299 -41 21 -6 11 3 -127 119 -83 71 -94 77 -109 63 -9 -8 -48
-30 -86 -48 -62 -29 -79 -33 -155 -33 -67 0 -96 5 -133 22 -49 23 -166 103
-167 114 -1 27 325 50 420 30 29 -6 54 -10 56 -9 1 2 -40 33 -91 70 l-93 68
-64 -30 c-175 -82 -306 -59 -450 79 l-73 70 133 1 c150 0 241 -16 340 -61 34
-15 62 -26 62 -24 0 2 -36 26 -79 54 -61 39 -96 54 -157 66 -155 33 -249 83
-314 169 -31 40 -80 134 -80 151 0 7 139 -29 198 -51z m-3245 -125 c37 -37 44
-40 78 -34 27 5 50 1 82 -13 76 -34 85 -104 24 -194 -24 -34 -24 -35 -6 -57
33 -40 22 -118 -19 -140 -13 -7 -32 0 -76 29 -33 22 -72 42 -88 45 -32 8 -33
11 -14 51 8 16 19 48 24 71 l10 42 -37 12 c-20 7 -55 12 -77 12 l-42 0 -5 66
c-4 36 -9 77 -12 91 -5 20 -1 28 22 42 49 30 90 23 136 -23z m-363 -189 c21
-11 41 -24 45 -29 3 -6 19 -4 40 5 64 26 140 10 165 -35 15 -28 12 -96 -5
-138 -15 -35 -15 -37 10 -63 35 -36 40 -78 16 -117 l-20 -32 -46 20 c-25 11
-72 25 -104 30 l-58 11 13 36 c14 40 17 81 8 106 -7 18 -96 23 -137 7 -23 -9
-26 -7 -32 27 -4 20 -17 56 -29 81 -27 54 -25 66 18 92 40 24 67 24 116 -1z
m-275 -249 c37 -24 43 -25 75 -14 142 49 232 -48 171 -184 -19 -41 -19 -42 1
-60 25 -23 48 -66 48 -92 0 -11 -10 -32 -23 -47 l-23 -27 -64 22 c-35 12 -85
25 -111 28 l-46 5 13 37 c7 20 13 57 14 83 l0 47 -44 6 c-24 4 -59 4 -78 -1
l-33 -7 32 -9 c48 -13 73 -51 73 -112 -1 -28 -7 -64 -13 -81 -12 -27 -11 -31
20 -58 40 -35 51 -82 29 -126 -9 -17 -18 -31 -20 -31 -1 0 -38 9 -81 20 -43
11 -92 20 -109 20 l-31 0 4 85 3 85 -51 0 c-29 0 -68 -7 -88 -15 -43 -18 -43
-18 -43 0 0 8 -18 47 -39 88 l-39 74 21 26 c45 53 90 60 159 23 44 -23 46 -23
96 -7 50 15 52 17 46 46 -3 17 -16 53 -30 81 -29 62 -30 65 -1 92 50 47 95 48
162 3z m-509 -450 c23 -10 44 -24 48 -29 4 -7 18 -5 39 6 17 9 57 18 87 20 49
4 58 1 82 -23 35 -35 45 -95 24 -155 l-15 -45 29 -27 c53 -48 61 -106 20 -143
-17 -15 -23 -16 -72 -2 -29 9 -79 19 -110 22 -55 7 -56 8 -47 32 10 28 12 87
2 122 -6 22 -9 23 -65 17 -65 -6 -114 -25 -68 -26 80 -1 122 -102 85 -205 -14
-39 -14 -40 19 -67 46 -38 61 -77 46 -122 -17 -52 -28 -58 -86 -40 -27 8 -81
17 -120 21 l-71 6 10 42 c5 23 7 63 3 89 l-7 46 -55 0 c-30 0 -71 -7 -91 -15
-37 -16 -52 -9 -53 21 0 5 -18 40 -40 77 -45 75 -44 85 11 131 39 33 80 33
146 0 47 -23 54 -24 80 -11 15 8 40 17 55 21 24 5 26 9 18 36 -5 17 -23 55
-40 85 -36 62 -32 82 23 115 40 25 61 25 113 1z m3177 -396 c479 -63 917 -293
1312 -689 269 -270 467 -550 652 -921 88 -175 88 -173 -8 -108 -352 235 -738
259 -964 61 -75 -66 -145 -202 -145 -282 0 -62 -15 -56 -55 22 -45 87 -136
186 -230 249 -33 22 -146 83 -251 137 -104 53 -223 122 -263 152 -40 31 -75
54 -77 51 -3 -3 50 -78 118 -168 l123 -164 45 -3 c57 -4 79 -22 27 -22 -20 0
-37 -4 -37 -9 0 -10 49 -21 97 -21 20 0 32 -4 28 -10 -3 -5 -17 -10 -31 -10
-13 0 -24 -4 -24 -10 0 -5 11 -10 24 -10 25 0 48 -20 24 -20 -26 -1 17 -17 62
-24 60 -9 87 -26 43 -26 -18 0 -33 -4 -33 -10 0 -5 10 -10 23 -10 12 0 29 -5
37 -10 13 -8 12 -10 -2 -10 -33 0 -18 -17 25 -27 36 -9 39 -12 20 -18 -32 -10
-29 -24 7 -32 27 -5 28 -7 14 -18 -15 -11 -14 -13 11 -19 22 -6 26 -9 15 -16
-12 -7 -11 -10 5 -15 59 -19 62 -22 27 -29 -36 -9 -34 -26 4 -26 14 0 23 -4
19 -9 -3 -5 16 -26 42 -47 27 -21 51 -41 56 -44 4 -4 -32 7 -80 23 -116 40
-250 43 -361 9 -338 -105 -547 -538 -503 -1045 6 -77 13 -143 16 -145 5 -5 77
75 93 105 8 15 12 47 10 79 -2 46 -1 52 10 37 6 -9 12 -20 12 -25 0 -4 6 -8
14 -8 12 0 12 8 1 57 -13 56 -12 91 1 39 6 -27 24 -36 24 -12 0 8 -7 48 -16
91 -9 42 -14 79 -11 81 3 3 13 -15 22 -40 26 -67 39 -58 30 21 -4 36 -9 74
-11 82 -2 9 11 -15 29 -53 18 -39 36 -65 40 -60 3 6 -2 43 -13 82 -18 73 -12
85 15 31 18 -34 40 -40 29 -7 -6 21 -5 22 11 8 20 -16 20 -19 0 76 -5 25 -3
24 16 -11 39 -72 45 -62 19 33 -24 88 -24 100 0 45 11 -24 24 -43 30 -43 13 0
13 -7 -9 73 -11 37 -18 67 -15 67 2 0 17 -29 33 -65 16 -36 35 -65 40 -65 6 0
11 1 11 3 0 1 -9 36 -20 77 -10 41 -18 76 -16 77 1 2 13 -20 26 -47 27 -57 44
-66 36 -17 -5 29 -5 30 6 10 6 -13 15 -23 21 -23 5 0 7 10 4 23 -3 12 -8 45
-12 72 l-6 50 26 -47 c25 -47 25 -49 13 -142 -42 -333 147 -758 458 -1032 l65
-57 -6 39 c-10 55 -57 154 -94 196 -35 41 -39 50 -13 41 19 -8 21 -11 -43 72
l-39 50 42 -39 c57 -54 64 -38 11 26 -78 96 -77 95 -54 78 11 -8 30 -23 43
-34 36 -32 25 -3 -23 63 -25 34 -43 61 -40 61 3 0 23 -16 45 -36 48 -44 66
-37 24 9 -16 17 -41 45 -54 61 l-25 30 32 -22 c40 -28 63 -29 38 -2 -17 18
-17 20 -2 14 26 -10 21 3 -25 54 -40 44 -32 43 19 -2 46 -40 31 -7 -25 55 -50
56 -52 61 -19 35 21 -15 40 -26 42 -24 3 2 -17 29 -43 59 -47 54 -36 52 25 -5
54 -49 49 -21 -7 44 -56 64 -57 81 -3 28 34 -33 47 -21 16 16 -17 20 -17 20 0
7 33 -26 27 -5 -13 49 -22 30 -40 55 -40 57 0 2 16 -8 35 -23 20 -15 38 -25
40 -22 2 2 -18 32 -45 65 -28 34 -50 65 -50 69 0 3 20 -10 46 -31 53 -44 71
-39 28 8 -55 59 -63 75 -22 44 54 -40 65 -33 24 17 -47 57 -46 65 4 25 22 -18
43 -30 46 -26 3 3 -14 34 -37 69 l-43 63 42 -33 c47 -37 52 -31 22 28 -27 53
-25 59 10 25 41 -39 47 -26 15 30 -15 25 -25 48 -23 50 2 3 22 -13 43 -35 22
-22 43 -40 47 -40 5 0 -5 27 -22 59 -18 36 -26 62 -20 66 17 10 30 -5 30 -35
0 -31 39 -70 71 -70 14 0 19 -7 19 -26 0 -37 15 -60 49 -74 35 -14 72 -8 96
16 22 22 27 16 110 -121 168 -277 260 -521 301 -797 21 -146 15 -390 -15 -525
-55 -249 -174 -494 -341 -698 -56 -68 -269 -280 -275 -273 -10 9 -55 256 -55
297 0 27 -5 51 -11 53 -26 9 -73 346 -52 373 7 10 106 81 207 149 29 19 51 26
87 26 l49 0 0 105 0 105 -32 0 c-51 0 -153 35 -156 54 -3 12 -15 16 -48 16
-71 0 -134 19 -134 41 0 16 -10 19 -72 21 -69 3 -79 0 -162 -40 l-89 -44 -71
19 -71 18 -3 68 -3 67 -79 0 c-79 0 -80 0 -80 25 0 23 -4 25 -45 25 -41 0 -45
2 -45 25 l0 25 -169 0 c-168 0 -170 0 -173 -22 -3 -20 -10 -23 -50 -26 -43 -3
-48 -5 -48 -28 0 -23 -2 -24 -75 -24 l-74 0 -3 -67 -3 -68 -71 -18 -71 -19
-89 44 c-85 41 -93 43 -166 40 -69 -3 -78 -5 -78 -22 0 -23 -52 -40 -122 -40
-35 0 -48 -4 -48 -15 0 -16 -113 -55 -161 -55 l-29 0 0 -105 0 -105 49 0 c44
0 58 -7 167 -83 l119 -84 3 -84 c3 -86 -32 -299 -50 -299 -4 0 -8 -17 -8 -37
0 -51 -51 -303 -61 -303 -17 0 -166 140 -234 220 -383 448 -499 968 -340 1523
49 169 152 394 257 561 76 120 75 119 106 96 13 -11 38 -20 54 -20 38 0 88 48
88 84 0 20 5 26 20 26 31 0 70 44 70 80 0 20 5 30 15 30 21 0 19 -13 -11 -71
-14 -28 -23 -54 -19 -57 3 -3 26 14 51 39 l46 44 -26 -52 c-35 -71 -33 -83 10
-42 l36 34 -27 -53 c-29 -60 -27 -76 8 -45 44 40 48 34 11 -21 -20 -31 -34
-59 -31 -62 3 -4 25 9 49 27 41 32 40 27 -9 -34 -33 -41 -28 -53 10 -25 59 44
62 43 18 -10 -48 -57 -50 -76 -5 -40 16 13 38 30 49 38 19 14 19 14 5 -5 -8
-11 -32 -42 -54 -68 -21 -26 -36 -50 -33 -53 3 -3 23 7 44 22 39 30 38 27 -17
-43 -34 -44 -35 -67 -3 -42 10 7 7 1 -6 -14 -35 -39 -5 -35 38 6 38 35 29 19
-33 -56 -22 -26 -37 -49 -34 -52 3 -3 26 13 51 36 58 50 61 41 6 -18 -43 -47
-46 -73 -4 -33 45 42 26 7 -22 -42 -50 -51 -53 -81 -3 -33 17 16 30 24 30 19
0 -6 -13 -23 -30 -39 -33 -32 -39 -51 -13 -41 15 6 15 4 -2 -14 -21 -23 -8
-27 21 -5 40 30 34 13 -16 -45 -58 -67 -52 -80 10 -24 22 20 40 33 40 30 0 -4
-18 -31 -40 -60 -49 -65 -52 -92 -5 -46 51 50 43 29 -20 -51 -58 -72 -56 -92
4 -36 l35 32 -33 -42 c-18 -24 -37 -45 -42 -48 -5 -4 -9 -13 -9 -22 0 -13 2
-14 18 -2 9 8 5 -2 -11 -21 -47 -60 -85 -132 -98 -182 -6 -27 -9 -52 -5 -55 3
-3 34 20 68 52 230 212 388 484 438 755 15 81 16 260 2 320 -9 35 -8 48 2 60
8 8 21 29 30 45 16 28 17 28 12 5 -21 -110 -15 -157 11 -92 11 26 12 25 6 -10
-7 -53 11 -48 32 9 24 62 30 41 11 -35 -19 -70 -19 -72 -7 -72 6 0 22 27 37
60 15 33 28 59 30 57 2 -2 -3 -27 -11 -57 -17 -64 -18 -70 -7 -70 5 0 17 18
27 40 26 57 28 45 5 -31 -22 -71 -24 -89 -11 -89 4 0 16 21 26 46 23 60 30 49
11 -17 -17 -57 -13 -75 10 -44 15 19 15 19 9 -7 -10 -40 7 -34 33 10 25 43 28
28 7 -48 -17 -65 -18 -70 -6 -70 5 0 20 26 35 58 l26 57 -5 -60 c-4 -33 -8
-68 -11 -77 -12 -40 19 -14 41 35 13 28 24 49 24 45 1 -6 -22 -125 -34 -175
-3 -13 -1 -23 5 -23 6 0 15 10 21 23 7 17 8 14 4 -18 -3 -22 -8 -48 -11 -57
-8 -28 14 -21 31 10 l16 27 -5 -40 c-8 -59 9 -104 59 -158 42 -45 45 -47 49
-25 22 106 23 358 2 490 -87 537 -485 830 -893 657 -24 -10 -43 -17 -43 -15 0
2 25 22 55 45 31 23 53 46 50 52 -4 5 5 9 19 9 34 0 33 16 -1 28 l-28 10 30 7
c41 11 49 16 35 25 -9 6 -6 10 9 15 26 8 27 22 4 28 -12 3 -10 5 7 6 14 1 32
5 40 11 11 7 8 11 -15 21 l-30 12 48 10 c50 10 61 23 25 29 -18 3 -15 6 15 12
42 9 50 26 11 26 -42 0 -18 18 34 25 52 7 76 17 70 31 -1 5 7 10 20 12 27 4
30 22 3 22 -11 0 -23 5 -26 10 -4 6 6 10 22 10 46 0 103 12 103 21 0 5 -19 9
-42 9 -32 0 -39 3 -28 10 8 5 34 10 58 10 l42 0 124 168 c69 92 122 169 120
171 -2 3 -17 -5 -32 -17 -79 -64 -163 -114 -328 -197 -100 -51 -211 -113 -247
-138 -89 -64 -178 -163 -226 -255 l-40 -77 -1 40 c-2 199 -163 378 -388 431
-91 22 -278 14 -382 -15 -93 -27 -297 -127 -369 -181 -29 -23 -55 -40 -57 -37
-6 6 169 346 230 447 471 769 1114 1237 1826 1329 109 14 371 12 493 -4z
m-3691 -156 c37 -19 37 -19 84 6 68 36 136 35 174 -3 35 -36 46 -90 33 -157
l-11 -50 44 -41 c34 -32 44 -47 44 -73 0 -45 -27 -93 -48 -87 -41 13 -168 26
-198 20 l-32 -6 5 59 c3 32 1 74 -4 93 -9 35 -10 35 -59 32 -27 -2 -68 -12
-91 -22 l-43 -19 -20 45 c-11 25 -33 63 -50 84 -36 45 -36 53 -9 92 41 57 102
66 181 27z m8 -347 c38 -39 55 -102 41 -158 -14 -53 -14 -54 1 -54 20 0 79
-51 89 -78 15 -39 -15 -115 -42 -107 -27 9 -181 9 -209 0 -21 -7 -23 -5 -17
24 6 30 -8 123 -22 147 -9 16 -115 -8 -151 -34 l-29 -22 -20 39 c-11 22 -39
60 -61 86 -22 25 -40 49 -40 52 0 3 9 21 21 40 38 62 100 78 174 45 l39 -18
55 33 c73 44 130 45 171 5z m-242 -342 c44 -27 71 -89 72 -161 0 -54 1 -57 28
-62 41 -8 96 -49 106 -80 6 -16 6 -41 0 -64 l-9 -38 -75 -6 c-41 -4 -97 -12
-123 -19 -47 -12 -49 -14 -43 -43 3 -16 6 -48 6 -71 l0 -42 54 -17 c71 -23
106 -63 106 -120 0 -23 -4 -48 -9 -55 -5 -9 -42 -18 -91 -23 -45 -5 -114 -20
-151 -32 l-69 -23 0 32 c0 39 -23 106 -50 144 -20 28 -21 29 -59 15 -21 -7
-54 -21 -72 -31 l-34 -18 44 -8 c87 -15 154 -86 176 -185 6 -32 8 -33 63 -33
76 0 139 -31 159 -78 23 -56 12 -78 -46 -86 -67 -9 -152 -39 -228 -81 -35 -19
-66 -35 -68 -35 -3 0 -5 10 -5 22 0 29 -60 117 -99 145 l-29 22 -58 -28 c-59
-28 -127 -83 -135 -110 -4 -11 -15 -6 -48 17 -23 17 -77 45 -119 62 -97 40
-102 45 -102 87 0 91 65 135 199 135 l86 0 23 34 c13 19 43 49 67 66 37 26 43
34 32 46 -25 32 -131 103 -144 98 -11 -5 -12 2 -7 32 21 116 101 169 214 142
l50 -12 50 45 c27 24 66 52 86 62 46 22 107 15 140 -16 20 -19 24 -20 24 -6 0
19 -38 105 -49 111 -13 8 -124 -43 -152 -70 l-28 -27 -54 60 c-30 32 -67 65
-81 72 -51 28 -18 118 56 154 32 16 45 17 98 7 l61 -11 46 41 c70 61 134 74
191 40z m1067 -175 c104 -42 163 -162 120 -244 -18 -35 -91 -100 -121 -107
-42 -11 -151 -204 -197 -349 -38 -121 -51 -229 -44 -379 8 -197 54 -362 158
-568 l41 -81 -21 -126 c-119 -720 -86 -1498 91 -2175 l32 -120 -39 -33 c-75
-65 -203 -80 -293 -34 -116 59 -124 184 -17 265 33 26 34 28 20 50 -14 21 -20
22 -94 18 -46 -3 -93 0 -114 7 -45 15 -87 63 -87 99 0 40 41 120 95 185 26 32
46 59 44 61 -2 2 -40 -7 -84 -21 -98 -30 -188 -34 -231 -10 -63 33 -65 129 -3
181 38 32 68 40 124 33 41 -6 44 -5 54 23 10 29 9 30 -52 59 -34 16 -107 44
-162 62 -55 18 -107 39 -116 46 -24 20 -69 117 -75 165 -13 91 46 158 137 158
60 0 105 -38 115 -97 5 -31 23 -59 81 -124 41 -46 79 -85 84 -87 4 -2 18 11
29 30 35 57 16 111 -85 238 -82 102 -124 138 -220 186 -125 63 -150 80 -163
109 -17 38 -15 77 9 140 24 64 48 80 116 72 78 -8 131 -73 158 -189 8 -39 29
-70 104 -158 l93 -110 29 15 29 15 -21 58 c-51 141 -127 279 -224 407 -53 71
-100 135 -102 141 -3 7 -19 10 -41 7 -71 -9 -185 95 -213 194 -21 78 13 183
68 204 13 5 50 9 82 9 131 0 199 -81 208 -246 5 -88 6 -92 111 -317 103 -221
107 -228 132 -222 14 4 28 9 31 13 10 11 -10 181 -32 264 -60 238 -162 432
-344 658 -51 63 -102 133 -113 155 -48 97 -56 311 -14 392 29 56 73 86 137 91
130 11 245 -85 245 -203 0 -57 -18 -100 -60 -149 l-33 -37 28 -102 c38 -139
86 -266 162 -430 65 -142 95 -235 117 -360 12 -71 12 -72 41 -69 17 2 31 5 32
6 10 10 -58 399 -176 1002 -73 376 -111 608 -111 682 0 24 6 64 14 90 8 26 24
83 36 127 11 44 43 126 71 182 105 219 267 313 424 248z m5420 -9 c125 -57
229 -223 301 -481 46 -165 40 -226 -102 -950 -75 -382 -137 -732 -149 -836 -7
-55 -6 -56 21 -63 33 -9 40 0 48 68 11 98 48 211 118 366 86 189 119 279 157
420 l29 108 -28 33 c-58 71 -77 135 -60 198 31 115 186 192 293 147 99 -41
137 -176 102 -369 -16 -93 -36 -129 -152 -269 -212 -256 -342 -552 -368 -839
l-7 -76 27 -7 c16 -4 32 -3 36 1 4 4 56 109 114 232 101 214 105 226 105 290
0 170 73 260 210 261 80 0 98 -8 124 -54 33 -57 39 -103 21 -163 -28 -95 -150
-202 -215 -189 -25 4 -32 -1 -64 -47 -19 -29 -65 -90 -101 -137 -75 -98 -129
-197 -180 -331 l-36 -93 23 -18 c13 -10 26 -17 30 -15 4 1 48 49 97 107 75 87
92 114 102 157 27 116 94 193 170 193 67 0 87 -16 110 -89 36 -118 17 -148
-150 -231 -109 -54 -159 -96 -244 -208 -88 -114 -105 -176 -65 -227 l22 -28
78 83 c61 67 79 94 89 132 15 65 55 98 115 98 64 0 102 -23 126 -76 17 -39 18
-52 9 -95 -12 -53 -32 -99 -62 -138 -12 -15 -52 -35 -118 -56 -101 -35 -231
-90 -231 -99 0 -3 5 -16 11 -30 11 -23 16 -24 58 -19 90 10 161 -46 161 -129
0 -71 -71 -115 -165 -102 -36 6 -155 37 -193 52 -9 3 13 -31 47 -75 108 -139
113 -221 14 -265 -39 -17 -60 -20 -129 -15 -78 4 -82 4 -92 -18 -9 -19 -5 -28
30 -61 22 -22 46 -51 54 -66 69 -133 -126 -264 -296 -199 -30 12 -69 34 -87
49 l-32 27 20 70 c35 123 79 326 104 480 95 587 96 1181 2 1740 l-22 130 52
104 c104 209 146 383 146 606 0 140 -3 172 -25 256 -46 171 -147 370 -206 406
-116 70 -142 103 -142 177 0 96 73 171 195 199 33 8 97 -4 150 -27z m-4330
-571 c139 -30 246 -105 304 -216 46 -85 61 -149 60 -254 l-1 -90 -19 92 c-52
253 -162 381 -366 429 -86 20 -279 13 -408 -15 -49 -10 -92 -18 -93 -16 -2 2
33 15 79 30 170 53 317 67 444 40z m896 -35 c-174 -105 -334 -245 -408 -356
-20 -30 -38 -54 -40 -54 -8 0 63 130 103 186 83 118 171 183 329 245 105 41
109 35 16 -21z m1281 8 c150 -57 251 -145 339 -295 70 -119 78 -150 14 -58
-73 106 -233 244 -415 356 -70 44 -58 43 62 -3z m1218 8 c52 -14 111 -32 130
-41 39 -18 45 -19 -90 11 -91 21 -292 29 -365 15 -139 -26 -256 -110 -318
-229 -36 -69 -76 -204 -78 -264 l-1 -33 -11 40 c-7 28 -7 64 1 124 44 327 341
480 732 377z m-3975 -176 c-38 -39 -25 -49 22 -18 98 64 102 65 61 22 -45 -47
-49 -63 -10 -36 15 10 34 23 42 27 13 8 13 7 1 -8 -22 -28 -6 -30 41 -6 l43
21 -22 -24 c-35 -37 -27 -42 21 -14 54 31 68 34 32 5 -42 -33 -30 -43 19 -15
43 26 62 23 30 -4 -30 -25 -5 -22 42 5 42 25 46 25 29 7 -24 -28 -11 -28 34
-1 l35 21 -19 -21 c-28 -31 -4 -27 63 11 l56 31 -37 -39 c-31 -33 -34 -41 -22
-52 11 -10 20 -10 50 3 48 20 51 19 28 -7 -19 -21 -19 -21 4 -15 12 4 32 10
45 14 22 6 22 6 3 -15 -23 -27 -20 -27 38 -2 49 21 59 15 26 -15 -33 -29 -23
-37 20 -15 53 27 56 25 26 -11 -34 -40 -33 -53 4 -34 36 19 39 7 5 -25 -14
-13 -23 -25 -22 -27 2 -2 23 4 47 12 57 20 58 20 26 -14 l-28 -29 -46 21 c-39
18 -65 22 -157 22 -96 0 -118 -3 -173 -26 -105 -45 -171 -90 -262 -179 -176
-172 -303 -420 -361 -703 -18 -89 -42 -366 -33 -376 8 -9 43 33 72 87 32 60
55 139 68 232 l8 55 9 -47 c5 -27 13 -48 17 -48 5 0 12 26 15 58 4 31 11 73
15 92 7 32 8 30 9 -22 1 -32 5 -58 10 -58 5 0 14 28 19 63 6 39 10 50 11 30 2
-51 17 -39 34 25 14 55 15 55 16 19 1 -49 17 -39 26 16 10 61 24 81 25 34 0
-56 16 -36 25 30 8 58 8 58 17 24 7 -26 12 -31 19 -20 5 8 9 28 10 44 0 17 4
39 9 50 7 17 9 16 10 -10 1 -26 2 -27 10 -10 5 11 12 38 16 60 7 40 7 40 13
10 8 -37 16 -24 26 39 11 81 24 100 24 38 1 -51 2 -53 24 -46 27 8 22 1 40 59
9 30 15 41 16 28 2 -36 19 -27 32 17 11 36 29 55 29 30 0 -5 4 -10 9 -10 5 0
15 24 22 53 l13 52 9 -43 c10 -53 18 -48 33 21 l11 52 13 -47 c7 -27 16 -48
20 -48 4 0 11 19 15 43 l8 42 6 -33 c8 -46 23 -44 42 7 17 47 29 39 29 -22 l1
-32 15 30 c9 17 24 41 33 55 l16 25 5 -40 6 -40 27 50 28 50 -7 -50 c-8 -64
-6 -97 6 -109 6 -6 -15 -35 -56 -79 -200 -216 -351 -566 -410 -947 -26 -169
-24 -464 4 -630 55 -322 166 -585 353 -833 72 -96 248 -277 332 -342 l38 -30
-12 -54 c-8 -38 -17 -55 -30 -58 -17 -5 -19 -15 -19 -93 0 -77 -29 -265 -46
-291 -3 -5 -14 -9 -25 -9 -18 0 -19 -8 -19 -115 l0 -115 70 0 c55 0 70 -3 70
-15 0 -11 17 -15 73 -17 66 -3 72 -5 75 -25 3 -22 8 -23 78 -23 59 0 74 -3 74
-15 0 -12 14 -15 70 -15 54 0 72 -4 76 -15 5 -12 25 -15 90 -15 68 0 84 -3 84
-15 0 -12 15 -15 75 -15 68 0 75 -2 75 -20 0 -18 7 -20 75 -20 60 0 75 -3 75
-15 0 -10 11 -15 35 -15 24 0 35 -5 35 -15 0 -12 20 -15 120 -15 100 0 120 3
120 15 0 10 10 15 30 15 18 0 33 6 36 15 5 11 24 15 80 15 67 0 74 2 74 20 0
18 7 20 75 20 60 0 75 3 75 15 0 12 16 15 84 15 65 0 85 3 90 15 4 11 22 15
71 15 51 0 65 3 65 15 0 12 15 15 79 15 75 0 80 1 83 23 3 20 9 22 76 25 55 2
72 6 72 17 0 12 15 15 70 15 l70 0 0 115 c0 115 0 115 -24 115 -22 0 -26 7
-40 73 -25 113 -36 187 -36 250 0 46 -4 62 -19 75 -12 10 -23 36 -26 63 l-7
45 71 59 c102 82 245 236 323 346 237 332 348 693 348 1127 -1 458 -134 879
-374 1186 -35 45 -75 92 -89 105 -20 18 -24 28 -17 42 13 23 13 65 -1 90 -5
11 -9 30 -7 42 3 18 8 14 28 -25 13 -27 27 -48 31 -48 4 0 9 17 11 38 l3 37
30 -54 30 -55 5 50 6 49 17 -39 c9 -21 17 -42 17 -47 0 -5 4 -9 9 -9 5 0 12
17 16 38 l8 37 9 -42 c12 -56 25 -54 34 3 8 52 18 44 29 -23 8 -49 25 -58 25
-14 0 47 17 45 29 -4 11 -44 25 -57 34 -32 3 9 6 8 11 -3 3 -8 11 -28 17 -45
l12 -30 6 25 c8 29 15 21 30 -36 7 -27 18 -43 31 -47 20 -5 21 -2 34 83 1 8 8
-20 15 -62 14 -78 30 -103 32 -50 1 19 4 15 11 -18 14 -70 20 -79 28 -45 6 26
8 23 14 -28 8 -55 26 -89 26 -48 0 45 18 27 25 -24 7 -63 24 -74 26 -17 1 34
3 31 17 -25 18 -72 37 -85 29 -20 -6 48 6 28 23 -40 12 -47 26 -56 33 -20 3
17 5 16 6 -8 4 -87 30 -101 32 -17 l1 57 9 -60 c17 -112 20 -125 29 -125 6 0
10 10 10 23 0 12 3 33 7 47 5 17 11 -5 24 -79 19 -112 59 -209 105 -251 l27
-25 -6 130 c-23 521 -296 995 -655 1136 -84 33 -256 34 -326 1 l-50 -23 -22
28 c-12 15 -21 29 -20 31 2 1 22 -4 44 -12 49 -18 52 -12 15 26 -29 31 -21 37
15 12 35 -24 38 -10 7 30 -31 41 -26 45 22 15 45 -28 54 -17 17 23 -30 32 -27
32 39 4 38 -17 38 -17 27 5 -11 19 -10 20 12 14 12 -4 29 -10 36 -12 15 -6 16
9 0 25 -16 16 -8 15 33 -2 25 -10 37 -11 51 -3 16 11 15 15 -20 51 l-37 39 50
-28 c28 -16 56 -33 63 -38 19 -15 15 14 -5 30 -10 8 -1 5 20 -6 49 -27 65 -27
41 0 -16 19 -12 18 24 -5 48 -30 66 -28 37 4 -24 27 -13 25 35 -5 45 -28 51
-23 18 13 l-23 24 53 -26 c53 -27 72 -20 27 10 -39 25 -22 28 25 4 49 -25 63
-20 29 11 -26 23 -9 16 33 -13 46 -32 53 -19 13 23 l-40 42 63 -42 c35 -23 67
-41 73 -39 5 2 -5 21 -23 43 l-33 40 35 -23 c67 -45 175 -92 208 -92 30 0 35
-4 56 -52 79 -178 185 -538 240 -818 77 -385 101 -665 93 -1111 -7 -454 -44
-743 -142 -1140 -152 -609 -410 -1144 -762 -1584 -104 -131 -314 -343 -433
-439 -567 -454 -1221 -607 -1866 -436 -850 226 -1582 1035 -1945 2153 -110
339 -180 692 -220 1112 -17 169 -17 692 0 865 45 493 151 956 310 1366 l31 81
49 6 c50 6 118 36 181 80 45 32 52 25 15 -13z m-2050 -244 c54 -24 109 -80
130 -130 l13 -30 79 2 c85 3 126 -13 157 -60 21 -33 24 -79 6 -88 -8 -5 -58
-28 -110 -53 -52 -25 -113 -58 -134 -75 l-40 -30 -29 44 c-15 24 -56 61 -89
84 l-60 40 -45 -33 c-46 -32 -97 -86 -90 -94 2 -2 16 1 31 7 41 15 96 12 141
-9 45 -20 110 -88 129 -133 13 -29 13 -29 102 -31 71 -2 94 -6 116 -22 33 -25
48 -51 51 -89 2 -28 -2 -32 -78 -63 -44 -19 -111 -56 -150 -82 l-70 -47 -30
45 c-16 25 -56 62 -87 84 l-58 39 -50 -37 c-54 -39 -93 -86 -104 -122 l-7 -22
-57 26 c-31 14 -95 33 -141 43 -46 10 -88 25 -92 32 -5 7 -9 36 -9 65 0 84 54
125 188 140 49 5 54 9 67 40 8 19 24 48 36 64 12 17 20 32 17 34 -9 9 -158 54
-201 60 -60 9 -72 29 -68 117 2 57 110 118 209 118 27 0 34 6 50 43 26 59 65
101 115 126 54 27 100 26 162 -3z m2854 -41 c-9 -9 -23 -13 -32 -9 -28 10 -19
24 15 24 29 0 31 -2 17 -15z m2621 0 c-7 -8 -18 -15 -25 -15 -7 0 -18 7 -25
15 -11 13 -7 15 25 15 32 0 36 -2 25 -15z m-2819 -15 c66 -12 166 -60 199 -95
l24 -25 -60 24 c-85 35 -173 49 -261 44 -248 -16 -453 -203 -645 -588 -37 -74
-68 -132 -68 -127 0 14 73 193 108 262 121 244 301 427 474 483 101 33 146 37
229 22z m3211 -23 c182 -67 338 -230 463 -482 57 -115 120 -265 111 -265 -2 0
-33 60 -69 133 -196 396 -416 587 -678 587 -69 0 -197 -28 -248 -55 -49 -25
-36 0 17 33 131 85 263 101 404 49z m-2962 -2 c-14 -17 -40 -20 -40 -6 0 8 18
16 44 20 5 0 3 -6 -4 -14z m2513 5 c8 0 7 -4 -1 -12 -9 -9 -16 -8 -30 6 -16
18 -16 19 1 12 10 -3 24 -6 30 -6z m-1888 -45 c98 -26 173 -72 266 -165 89
-88 138 -161 189 -282 52 -121 91 -307 89 -425 0 -55 -2 -50 -35 87 -59 251
-103 366 -190 497 -120 181 -276 266 -489 267 -55 0 -118 -3 -140 -7 -56 -10
-23 9 47 27 71 19 190 20 263 1z m1489 -1 c33 -8 66 -20 71 -25 7 -7 0 -8 -20
-3 -57 15 -236 9 -299 -10 -273 -82 -418 -292 -529 -766 l-25 -105 -1 67 c-1
77 27 233 59 327 128 381 436 594 744 515z m-2011 -56 c23 -27 22 -57 -5 -85
-29 -31 -59 -29 -92 6 -24 25 -27 33 -19 58 18 53 78 64 116 21z m2350 21 c28
-15 37 -28 37 -58 0 -31 -37 -71 -65 -71 -60 0 -86 82 -39 119 31 24 37 25 67
10z m-2469 -110 c33 -15 52 -60 37 -88 -24 -44 -72 -53 -108 -19 -44 41 -23
97 44 117 1 1 13 -4 27 -10z m381 -8 c113 -40 201 -131 247 -256 32 -87 32
-294 0 -413 -37 -134 -128 -345 -178 -408 -13 -17 -5 3 56 142 10 23 34 90 53
150 117 363 47 626 -206 773 -60 35 -50 39 28 12z m1815 15 c0 -2 -26 -19 -58
-39 -160 -99 -242 -251 -242 -449 0 -157 45 -329 136 -527 24 -52 43 -96 41
-98 -7 -6 -96 163 -130 247 -56 136 -79 232 -84 360 -6 133 5 199 46 286 33
70 74 119 131 159 46 32 160 76 160 61z m389 -22 c33 -31 4 -114 -40 -114 -33
0 -69 23 -76 47 -17 69 65 116 116 67z m-2375 -26 c22 -31 20 -64 -4 -88 -28
-28 -62 -25 -94 9 -30 31 -29 56 0 86 24 23 80 19 98 -7z m2188 5 c39 -35 4
-113 -50 -113 -55 0 -83 70 -45 112 20 22 70 23 95 1z m-2329 -23 c-3 -11 -7
-20 -9 -20 -2 0 -4 9 -4 20 0 11 4 20 9 20 5 0 7 -9 4 -20z m2389 -15 c2 -19
1 -35 -3 -35 -4 0 -9 16 -11 35 -2 19 -1 35 3 35 4 0 9 -16 11 -35z m-535 3
c-3 -8 -6 -5 -6 6 -1 11 2 17 5 13 3 -3 4 -12 1 -19z m-38 -53 c0 -16 -1 -17
-8 -5 -5 8 -12 26 -16 40 -7 24 -7 24 9 5 8 -11 15 -29 15 -40z m-1245 11 c-3
-14 -10 -23 -15 -21 -4 3 -3 17 3 30 14 31 21 26 12 -9z m-574 14 c0 -5 -4
-10 -10 -10 -5 0 -10 5 -10 10 0 6 5 10 10 10 6 0 10 -4 10 -10z m620 -76
c-13 -65 -13 -66 -25 -38 -10 25 -9 35 8 71 12 24 23 41 25 38 2 -2 -1 -34 -8
-71z m1151 35 c13 -27 18 -50 14 -66 -3 -14 -9 -23 -12 -20 -6 7 -32 127 -27
127 2 0 13 -19 25 -41z m-1726 -4 c14 -13 25 -33 25 -43 0 -30 -38 -72 -66
-72 -30 0 -74 41 -74 70 0 27 43 70 70 70 12 0 32 -11 45 -25z m2376 7 c47
-39 16 -122 -47 -122 -60 0 -86 81 -38 119 33 26 55 26 85 3z m-2519 -52 c-2
-18 -24 -64 -49 -101 -43 -65 -47 -68 -77 -62 -17 3 -44 11 -60 17 l-28 11 40
52 c23 28 58 69 80 92 34 36 42 39 68 32 26 -7 29 -11 26 -41z m2735 -70 l54
-65 -28 -11 c-15 -6 -44 -14 -63 -17 -34 -6 -36 -5 -83 70 -54 85 -59 123 -17
134 30 7 56 -14 137 -111z m-2869 -111 c12 -5 22 -11 22 -13 0 -3 -16 -35 -36
-71 -21 -39 -42 -65 -52 -65 -26 0 -102 32 -102 43 0 5 16 36 36 68 35 59 36
59 72 53 21 -4 47 -11 60 -15z m2969 -31 c44 -73 47 -84 26 -91 -10 -3 -36
-12 -58 -20 l-40 -15 -41 71 c-23 40 -40 74 -38 76 4 5 94 29 109 30 6 1 25
-23 42 -51z m-3037 -145 c0 -2 -17 -42 -37 -89 -25 -54 -43 -84 -54 -84 -19 0
-109 30 -109 37 0 2 18 44 41 93 l41 88 59 -20 c32 -11 59 -22 59 -25z m3104
28 c3 -5 21 -45 40 -89 l35 -81 -62 -19 -61 -19 -38 86 c-21 47 -38 88 -38 92
0 8 77 37 102 38 9 1 19 -3 22 -8z m-5842 -133 c51 -15 126 -82 149 -132 l18
-41 70 4 c95 4 152 -22 175 -80 23 -58 21 -64 -31 -84 -72 -27 -173 -80 -217
-113 l-40 -30 -27 42 c-15 25 -53 60 -89 84 -52 35 -65 40 -79 30 -76 -58
-110 -93 -125 -126 l-18 -39 -71 28 c-40 15 -101 33 -137 39 -36 7 -71 20 -78
28 -6 9 -12 39 -12 68 0 45 4 57 29 82 31 30 122 62 179 62 27 0 34 6 50 43
26 59 65 101 115 126 48 24 82 26 139 9z m2606 -79 c23 -7 42 -15 42 -19 0
-13 -43 -135 -51 -144 -8 -9 -96 10 -112 24 -4 3 0 28 9 56 30 93 36 105 53
100 9 -3 35 -10 59 -17z m3342 -51 c12 -40 23 -77 24 -82 1 -8 -77 -36 -105
-36 -10 0 -22 22 -37 68 -12 38 -22 73 -22 80 0 9 73 38 106 41 6 1 21 -32 34
-71z m-3363 -142 c3 -3 -2 -38 -12 -78 -27 -117 -23 -110 -56 -104 -98 19 -91
15 -84 49 4 18 13 62 21 98 l15 66 55 -13 c31 -7 58 -15 61 -18z m3421 -73
l20 -93 -32 -5 c-92 -17 -88 -19 -110 78 -10 48 -17 90 -14 93 10 9 103 30
110 25 3 -3 15 -48 26 -98z m-3465 -133 c3 -3 1 -30 -4 -60 -4 -30 -8 -79 -8
-108 l-1 -54 -62 7 c-35 4 -64 8 -65 9 -3 2 17 198 22 212 3 10 109 4 118 -6z
m3491 -2 c3 -13 9 -64 12 -114 l7 -91 -48 -6 c-26 -4 -53 -7 -60 -7 -13 0 -39
210 -27 222 4 4 27 8 52 11 25 2 48 4 51 5 4 1 9 -8 13 -20z m-6069 -32 c28
-13 69 -44 91 -69 l41 -46 48 14 c98 30 174 14 209 -45 27 -46 20 -62 -41 -99
-31 -19 -90 -66 -130 -104 l-74 -70 -32 33 c-30 31 -137 90 -163 90 -15 0 -88
-80 -108 -118 -9 -17 -16 -43 -16 -58 0 -25 -2 -26 -32 -20 -78 16 -182 25
-222 20 -39 -6 -46 -4 -61 19 -25 39 -30 98 -11 135 18 35 77 73 152 97 49 16
52 19 58 57 24 150 158 226 291 164z m4423 -188 l3 -98 -161 0 -160 0 0 100 0
101 158 -3 157 -3 3 -97z m-328 -28 l0 -80 75 0 c60 0 75 -3 75 -15 0 -12 -19
-15 -115 -15 l-115 0 0 95 0 95 40 0 40 0 0 -80z m420 -15 l0 -95 -125 0
c-104 0 -125 2 -125 15 0 12 16 15 85 15 l85 0 0 80 0 80 40 0 40 0 0 -95z
m-520 -30 l0 -75 55 0 c48 0 55 -2 55 -20 0 -19 -7 -20 -125 -20 l-125 0 0 88
c0 49 3 92 7 95 3 4 35 7 70 7 l63 0 0 -75z m670 -20 l0 -95 -126 0 c-114 0
-125 2 -122 18 2 13 15 18 56 20 l52 3 0 68 c0 37 3 71 7 74 3 4 35 7 70 7
l63 0 0 -95z m-2105 73 c2 -2 5 -49 7 -105 l4 -102 -26 -4 c-14 -3 -43 -4 -65
-3 l-40 1 -3 112 -3 113 62 -5 c34 -3 63 -6 64 -7z m3533 -53 c2 -33 1 -83 -3
-111 l-6 -51 -53 -1 c-29 0 -58 3 -64 7 -8 5 -10 37 -5 108 7 113 3 109 88
108 l40 0 3 -60z m-2508 -55 l60 -30 0 -60 0 -60 -130 0 -130 0 0 90 0 90 70
0 c59 0 81 -5 130 -30z m1560 -60 l0 -90 -135 0 -135 0 0 58 0 58 63 31 c52
27 74 32 135 32 l72 1 0 -90z m-1780 -29 l0 -70 53 -3 c44 -3 52 -6 52 -23 0
-19 -7 -20 -130 -20 l-130 0 -3 93 -3 92 81 0 80 0 0 -69z m880 -31 l0 -100
-59 0 c-58 0 -60 -1 -63 -27 -2 -23 -8 -29 -35 -31 l-33 -3 0 100 0 101 35 0
c30 0 35 3 35 23 0 33 7 37 67 37 l53 0 0 -100z m158 68 c3 -25 8 -28 38 -28
l34 0 0 -100 0 -100 -35 0 c-32 0 -35 2 -35 30 l0 30 -65 0 -65 0 0 93 c0 52
3 97 7 101 4 4 32 6 63 4 52 -3 55 -5 58 -30z m917 -63 l0 -90 -130 0 c-127 0
-130 0 -133 23 -3 20 0 22 47 22 l51 0 0 63 c0 35 3 67 7 71 4 4 41 5 83 4
l75 -3 0 -90z m-1475 60 c0 -25 1 -25 90 -25 l90 0 0 -100 c0 -91 -2 -100 -19
-100 -10 0 -21 -9 -24 -20 -5 -18 -14 -20 -85 -20 -62 0 -81 -3 -86 -15 -4
-10 -20 -15 -51 -15 l-46 0 3 147 3 146 40 13 c66 20 85 18 85 -11z m915 12
l50 -13 3 -147 3 -147 -51 0 c-38 0 -50 4 -50 15 0 12 -16 15 -81 15 -72 0
-81 2 -86 20 -3 11 -14 20 -24 20 -17 0 -19 9 -19 100 l0 100 90 0 c89 0 90 0
90 25 0 29 6 29 75 12z m-1075 -163 c0 -121 -2 -144 -15 -144 -8 0 -15 -7 -15
-15 0 -12 -16 -15 -80 -15 -73 0 -80 -2 -80 -20 0 -18 -7 -20 -78 -20 l-79 0
-89 63 -89 62 68 3 67 3 0 34 0 35 94 0 95 0 3 28 c3 27 3 27 91 30 l87 3 0
55 c0 34 4 53 10 49 6 -4 10 -65 10 -151z m1265 46 l85 0 0 -30 0 -29 98 -3
97 -3 3 -32 3 -32 66 -3 66 -3 -89 -62 -89 -63 -82 0 c-76 0 -83 2 -83 20 0
18 -7 20 -80 20 -64 0 -80 3 -80 15 0 8 -4 15 -10 15 -12 0 -14 283 -2 294 4
4 8 -17 10 -48 l3 -56 84 0z m-1757 3 l3 -63 45 0 c44 0 45 -1 42 -27 l-3 -28
-132 -3 -133 -3 0 89 c0 49 3 92 7 96 4 4 43 5 88 4 l80 -3 3 -62z m2317 -28
l0 -90 -132 -3 -133 -3 0 31 c0 29 2 30 45 30 l45 0 0 58 c0 32 3 62 7 66 4 4
43 5 88 4 l80 -3 0 -90z m-2926 13 c6 -29 16 -77 23 -106 6 -28 9 -54 6 -57
-8 -9 -119 -27 -132 -22 -12 5 -36 139 -36 199 0 28 10 32 97 36 30 2 32 0 42
-50z m3500 37 c5 -6 -25 -215 -32 -222 -3 -3 -38 0 -77 7 -51 9 -70 16 -66 25
2 7 12 51 21 96 10 46 19 90 21 98 3 11 18 12 67 6 34 -3 64 -8 66 -10z
m-6083 -82 c33 -11 66 -33 100 -69 l52 -52 43 15 c28 9 66 13 102 11 48 -4 63
-9 87 -34 16 -16 32 -41 35 -55 6 -23 0 -30 -62 -70 -37 -24 -96 -72 -131
-107 l-63 -63 -39 35 c-43 39 -75 57 -134 76 -37 12 -40 11 -58 -11 -58 -72
-79 -106 -89 -142 -9 -36 -13 -39 -37 -33 -15 4 -82 9 -149 13 l-122 6 -15 32
c-46 97 11 180 146 216 46 13 48 15 58 61 18 86 60 142 130 172 46 20 85 20
146 -1z m4392 -105 l-3 -83 -127 -3 -128 -3 0 86 0 85 130 0 131 0 -3 -82z
m-268 -38 l0 -60 65 0 c58 0 65 -2 65 -20 0 -19 -7 -20 -130 -20 l-130 0 0 80
0 80 65 0 65 0 0 -60z m410 -20 l0 -80 -130 0 c-123 0 -130 1 -130 20 0 18 7
20 65 20 l65 0 0 60 0 60 65 0 65 0 0 -80z m-552 -27 l3 -73 49 0 c28 0 50 -4
50 -10 0 -6 -50 -10 -130 -10 l-130 0 0 85 0 86 78 -3 77 -3 3 -72z m722 -8
l0 -85 -130 0 c-80 0 -130 4 -130 10 0 6 23 10 50 10 l50 0 0 75 0 75 80 0 80
0 0 -85z m-2061 13 c7 -24 26 -73 41 -110 l29 -68 -47 -26 c-26 -15 -57 -33
-69 -40 -12 -8 -27 -14 -32 -14 -16 0 -92 251 -82 270 5 8 83 27 117 29 28 1
32 -3 43 -41z m3349 30 l53 -13 -6 -35 c-11 -64 -68 -240 -77 -240 -5 0 -41
18 -79 41 -55 32 -69 44 -63 57 4 10 23 59 42 110 40 103 37 101 130 80z
m-2178 -68 l0 -70 54 0 c30 0 58 -4 61 -10 4 -6 -40 -10 -124 -10 l-131 0 0
80 0 80 70 0 70 0 0 -70z m1040 -10 l0 -80 -130 0 c-80 0 -130 4 -130 10 0 6
27 10 60 10 l60 0 0 70 0 70 70 0 70 0 0 -80z m-1200 -25 l0 -75 55 0 c30 0
55 -4 55 -10 0 -6 -48 -10 -125 -10 l-125 0 0 85 0 85 70 0 70 0 0 -75z m1360
-10 l0 -85 -130 0 c-80 0 -130 4 -130 10 0 6 25 10 55 10 l55 0 0 75 0 75 75
0 75 0 0 -85z m-1520 -20 l0 -75 60 0 c33 0 60 -4 60 -10 0 -6 -48 -10 -125
-10 l-125 0 0 85 0 85 65 0 65 0 0 -75z m1668 -12 l3 -83 -131 0 c-85 0 -129
4 -125 10 3 6 31 10 61 10 l54 0 0 68 c0 38 3 72 7 76 4 4 34 6 68 4 l60 -3 3
-82z m-918 -43 l0 -80 -65 0 -65 0 0 -30 c0 -27 -3 -30 -30 -30 l-30 0 0 95
c0 88 1 95 20 95 11 0 20 7 20 15 0 12 15 15 75 15 l75 0 0 -80z m186 65 c4
-8 15 -15 25 -15 17 0 19 -8 19 -95 l0 -95 -30 0 c-27 0 -30 3 -30 30 l0 30
-70 0 -70 0 0 80 0 80 75 0 c58 0 77 -4 81 -15z m-408 -112 l3 -93 -29 0 c-21
0 -31 -6 -35 -20 -5 -18 -14 -20 -96 -20 -74 0 -91 -3 -91 -15 0 -10 -10 -15
-30 -15 l-30 0 0 95 0 95 35 0 c24 0 35 5 35 15 0 12 15 15 79 15 71 0 79 2
84 21 4 16 12 20 39 17 l33 -3 3 -92z m559 77 c5 -18 14 -20 84 -20 64 0 79
-3 79 -15 0 -10 11 -15 35 -15 l35 0 0 -95 0 -95 -35 0 c-24 0 -35 5 -35 15 0
12 -17 15 -90 15 -83 0 -90 1 -90 20 0 16 -7 20 -30 20 l-30 0 0 95 0 95 36 0
c27 0 37 -5 41 -20z m-899 -147 l3 -93 -36 0 c-24 0 -35 -4 -35 -15 0 -12 -16
-15 -85 -15 -78 0 -85 -2 -85 -20 0 -18 -7 -20 -55 -20 -30 0 -55 4 -55 9 0 5
9 53 20 106 11 53 20 99 20 101 0 2 59 4 130 4 125 0 130 1 130 21 0 15 5 20
23 17 21 -3 22 -8 25 -95z m1212 77 c0 -19 7 -20 128 -20 l128 0 18 -92 c11
-50 21 -100 24 -110 4 -16 -3 -18 -51 -18 -46 0 -55 3 -60 20 -5 18 -14 20
-91 20 -70 0 -86 3 -86 15 0 10 -10 15 -30 15 l-30 0 0 95 c0 95 0 95 25 95
18 0 25 -5 25 -20z m-2119 -92 c30 -51 55 -95 57 -99 4 -10 -149 -119 -159
-114 -11 7 -99 192 -99 208 0 12 122 95 141 97 4 0 31 -42 60 -92z m3120 44
c32 -21 59 -41 59 -45 0 -13 -98 -217 -104 -217 -8 0 -156 110 -156 115 0 3
23 44 50 92 28 48 50 91 50 96 0 13 36 -2 101 -41z m-5818 -4 c26 -8 62 -33
100 -70 l59 -58 44 15 c57 19 137 19 174 0 31 -16 60 -61 60 -92 -1 -11 -27
-36 -68 -63 -37 -25 -97 -75 -133 -112 l-67 -67 -28 31 c-34 35 -94 71 -147
88 -33 10 -41 10 -57 -5 -29 -26 -94 -124 -87 -131 3 -3 21 4 39 17 28 21 45
24 113 24 95 -1 143 -21 211 -91 l43 -45 52 15 c132 40 233 6 253 -84 6 -23
-1 -29 -70 -70 -42 -25 -109 -75 -149 -112 l-72 -67 -29 30 c-31 33 -131 85
-180 95 -27 5 -35 0 -76 -45 -49 -55 -78 -107 -78 -141 0 -20 -4 -22 -32 -16
-83 17 -198 27 -249 21 -53 -6 -57 -5 -74 21 -10 16 -20 49 -23 74 -3 39 0 51
23 78 31 37 101 76 167 92 43 11 44 13 64 76 11 36 17 67 14 69 -17 10 -180
24 -221 19 -43 -6 -49 -4 -64 19 -23 36 -30 100 -15 138 16 38 84 84 157 105
51 15 52 16 62 65 17 77 74 155 131 178 35 14 105 13 153 -1z m4327 -34 c0
-20 -4 -24 -17 -20 -80 25 -183 25 -245 1 -14 -6 -18 -2 -18 19 l0 26 140 0
140 0 0 -26z m-330 -51 c-14 -9 -42 -30 -62 -46 l-38 -29 0 46 0 46 62 0 c62
0 62 0 38 -17z m480 -28 c0 -25 -3 -45 -6 -45 -4 0 -21 12 -38 28 -17 15 -43
35 -56 44 -25 17 -24 17 38 17 l62 1 0 -45z m-592 -23 c3 -25 -5 -46 -30 -83
-32 -48 -34 -48 -85 -49 l-53 0 0 85 0 86 83 -3 82 -3 3 -33z m772 -47 l0 -85
-53 0 c-52 0 -54 1 -85 45 -23 33 -32 57 -32 85 l0 40 85 0 85 0 0 -85z m-960
-25 l0 -70 55 0 c30 0 55 -4 55 -10 0 -6 -48 -10 -125 -10 l-125 0 0 80 0 80
70 0 70 0 0 -70z m1120 -10 l0 -80 -130 0 c-80 0 -130 4 -130 10 0 6 25 10 55
10 l55 0 0 70 0 70 75 0 75 0 0 -80z m-2005 -157 c-40 -40 -77 -73 -83 -73
-11 0 -42 41 -95 127 l-26 41 80 61 80 61 59 -73 58 -72 -73 -72z m2897 137
c26 -19 47 -39 48 -44 0 -5 -25 -47 -56 -93 l-56 -84 -56 52 c-32 29 -67 63
-80 76 l-23 23 57 75 56 74 32 -22 c17 -12 53 -38 78 -57z m-2172 -5 l0 -75
60 0 c33 0 60 -4 60 -10 0 -6 -52 -10 -135 -10 l-135 0 0 85 0 85 75 0 75 0 0
-75z m1450 -10 l0 -85 -135 0 c-83 0 -135 4 -135 10 0 6 25 10 55 10 l55 0 0
75 0 75 80 0 80 0 0 -85z m-1620 -25 l0 -70 65 0 c37 0 65 -4 65 -10 0 -6 -53
-10 -140 -10 l-140 0 0 80 0 80 75 0 75 0 0 -70z m1780 -10 l0 -80 -135 0
c-83 0 -135 4 -135 10 0 6 28 10 65 10 l65 0 0 70 0 70 70 0 70 0 0 -80z
m-1370 -85 c-10 -30 -22 -75 -25 -100 l-7 -45 -54 0 -54 0 0 85 c0 78 2 85 20
85 11 0 20 7 20 15 0 12 13 15 59 15 l60 0 -19 -55z m920 40 c0 -8 9 -15 20
-15 18 0 20 -7 20 -85 l0 -85 -55 0 c-30 0 -55 -4 -55 -10 0 -6 32 -10 75 -10
l75 0 0 -90 0 -90 -80 0 c-47 0 -80 -4 -80 -10 0 -6 27 -10 60 -10 l60 0 0
-125 0 -125 -64 0 c-59 0 -65 -2 -68 -22 -3 -21 -10 -24 -78 -29 -63 -5 -55
-6 58 -7 l132 -2 0 -100 0 -100 -155 0 -155 0 0 81 c0 51 -4 78 -10 74 -5 -3
-10 -47 -10 -96 0 -88 -1 -90 -22 -87 -18 2 -24 11 -26 36 l-3 32 -155 0 -154
0 0 -36 c0 -31 -3 -35 -22 -32 -22 3 -23 9 -29 98 l-5 95 -2 -83 -2 -83 -157
3 -158 3 0 95 0 95 135 5 c96 4 113 6 58 8 -76 2 -78 3 -78 27 0 24 -2 25 -65
25 l-65 0 0 125 0 125 59 0 59 0 12 -49 c20 -84 26 -87 102 -62 93 31 141 64
280 198 161 154 271 212 407 215 57 2 58 4 36 68 -8 23 -15 44 -15 46 0 2 27
4 60 4 47 0 60 -3 60 -15z m-1731 -59 c48 -49 62 -68 54 -78 -57 -73 -135
-168 -138 -168 -3 0 -36 37 -74 82 l-70 82 77 72 c42 40 79 73 82 74 3 0 34
-29 69 -64z m2590 -10 l74 -75 -49 -57 c-27 -31 -59 -68 -71 -83 -11 -14 -23
-24 -25 -21 -49 58 -138 172 -138 177 0 10 114 131 125 132 6 0 44 -32 84 -73z
m-1951 -33 c2 -69 0 -83 -13 -83 -8 0 -15 -7 -15 -15 0 -12 -19 -15 -115 -15
-96 0 -115 -3 -115 -15 0 -12 -16 -15 -85 -15 -61 0 -85 3 -85 13 0 6 8 49 17
95 l17 82 147 0 c140 0 147 1 152 21 5 17 12 20 49 17 l43 -3 3 -82z m1252 67
c0 -18 8 -20 152 -22 l152 -3 18 -85 c9 -47 17 -88 18 -92 0 -5 -38 -8 -85 -8
-69 0 -85 3 -85 15 0 12 -19 15 -110 15 -143 0 -150 6 -150 120 l0 80 45 0
c38 0 45 -3 45 -20z m-1758 -150 c45 -39 55 -70 23 -70 -8 0 -14 -31 -18 -106
-3 -58 -9 -110 -14 -115 -5 -5 -47 24 -101 72 l-92 80 42 53 c24 30 56 70 71
90 15 20 31 36 35 36 4 0 28 -18 54 -40z m2297 -40 c34 -44 64 -85 66 -93 6
-15 -172 -173 -183 -163 -4 4 -8 57 -10 117 -3 86 -7 109 -18 109 -33 0 -25
31 17 70 24 21 49 39 55 40 6 0 39 -36 73 -80z m-1659 -24 c0 -24 3 -64 6 -90
l7 -46 -77 0 -76 0 0 90 0 90 70 0 70 0 0 -44z m-160 -70 c0 -80 1 -85 23 -89
12 -2 -38 -5 -110 -6 l-133 -1 0 90 0 90 110 0 110 0 0 -84z m1440 -6 l0 -90
-137 1 c-76 1 -126 4 -110 6 27 4 27 4 27 89 l0 84 110 0 110 0 0 -90z m-1670
-25 c0 -81 1 -85 22 -85 15 0 19 -3 12 -10 -7 -7 -59 -10 -135 -8 l-124 3 -3
93 -3 92 116 0 115 0 0 -85z m1900 -10 l0 -95 -124 0 c-73 0 -127 4 -131 10
-3 6 3 10 14 10 20 0 21 6 21 85 l0 85 110 0 110 0 0 -95z m-1640 -185 l0
-110 -70 0 c-63 0 -70 2 -70 20 0 19 -7 20 -185 20 -102 0 -185 3 -185 8 0 6
11 56 25 120 5 21 9 22 140 22 113 0 135 2 135 15 0 12 18 15 105 15 l105 0 0
-110z m1370 95 c0 -13 22 -15 134 -15 l133 0 12 -61 c7 -34 15 -67 18 -75 4
-12 -26 -14 -181 -14 -179 0 -186 -1 -186 -20 0 -18 -7 -20 -70 -20 l-70 0 0
110 0 110 105 0 c87 0 105 -3 105 -15z m-1520 -195 c0 -6 -28 -10 -65 -10
l-64 0 -3 -87 -3 -88 -137 -3 -138 -3 0 101 0 100 205 0 c130 0 205 -4 205
-10z m1868 -87 l-3 -98 -137 -3 -138 -3 0 91 0 90 -65 0 c-37 0 -65 4 -65 10
0 6 75 10 205 10 l206 0 -3 -97z m-1578 42 c0 -12 -13 -15 -55 -15 l-55 0 0
-79 c0 -95 8 -91 -167 -91 l-123 0 0 100 0 100 200 0 c171 0 200 -2 200 -15z
m1278 -82 l-3 -98 -110 -3 c-60 -2 -125 0 -142 3 l-33 6 0 79 0 79 -57 3 c-34
2 -58 8 -61 16 -3 9 42 12 203 12 l206 0 -3 -97z m-1698 -93 c0 -19 7 -20 140
-20 l140 0 0 -137 c-1 -99 -4 -133 -11 -120 -8 14 -24 17 -84 17 -59 0 -75 3
-75 15 0 11 -17 15 -72 17 -67 3 -73 5 -76 26 -3 20 -8 22 -73 22 -55 0 -69 3
-69 15 0 12 -14 15 -65 15 -75 0 -73 -4 -49 101 l16 69 139 0 c132 0 139 -1
139 -20z m2009 -42 c7 -35 15 -73 18 -85 5 -22 3 -23 -61 -23 -52 0 -66 -3
-66 -15 0 -12 -14 -15 -69 -15 -65 0 -70 -2 -73 -22 -3 -21 -9 -23 -75 -26
-56 -2 -73 -6 -73 -17 0 -12 -17 -15 -79 -15 -67 0 -80 -3 -84 -17 -3 -10 -5
44 -6 120 l-1 137 140 0 c133 0 140 1 140 20 0 19 7 20 139 20 l138 0 12 -62z
m-1009 -53 l0 -65 -140 0 -140 0 0 65 0 65 140 0 140 0 0 -65z m-382 -117 c2
-143 2 -148 -18 -148 -13 0 -20 7 -20 20 0 18 -7 20 -85 20 -69 0 -85 3 -85
15 0 11 -12 15 -50 15 l-50 0 0 115 0 116 153 -3 152 -3 3 -147z m792 37 l0
-115 -49 0 c-34 0 -51 -4 -55 -15 -4 -12 -24 -15 -86 -15 -73 0 -80 -2 -80
-20 0 -13 -7 -20 -20 -20 -19 0 -20 7 -20 150 l0 150 155 0 155 0 0 -115z
m-710 40 l0 -45 70 0 70 0 0 -105 0 -105 -55 0 c-42 0 -55 3 -55 15 0 11 -11
15 -40 15 l-40 0 0 135 0 135 25 0 c23 0 25 -4 25 -45z m370 -90 l0 -135 -39
0 c-25 0 -41 -5 -45 -15 -4 -11 -21 -15 -61 -15 l-55 0 0 105 0 105 70 0 70 0
0 38 c0 45 5 52 37 52 23 0 23 0 23 -135z m-1270 55 c0 -5 -11 -10 -25 -10
-25 0 -25 -1 -25 -90 l0 -90 -65 0 -65 0 0 100 0 100 90 0 c53 0 90 -4 90 -10z
m2298 -92 l3 -98 -66 0 -65 0 0 90 0 90 -30 0 c-16 0 -30 5 -30 10 0 7 33 10
93 8 l92 -3 3 -97z m-2158 47 c0 -8 -9 -15 -20 -15 -17 0 -19 -8 -22 -82 l-3
-83 -67 -3 -68 -3 0 101 0 100 90 0 c73 0 90 -3 90 -15z m2018 -82 l-3 -98
-67 -3 -68 -3 0 85 c0 79 -1 85 -22 88 -12 2 -23 9 -26 16 -3 9 20 12 93 12
l96 0 -3 -97z m-1868 47 c0 -5 -9 -10 -20 -10 -19 0 -20 -7 -20 -90 l0 -90
-70 0 -70 0 0 100 0 100 90 0 c53 0 90 -4 90 -10z m1720 -90 l0 -100 -75 0
-75 0 0 90 c0 83 -1 90 -20 90 -11 0 -20 5 -20 10 0 6 38 10 95 10 l95 0 0
-100z m-1582 53 l-28 -4 0 -95 0 -94 -65 0 -65 0 0 100 0 100 93 -1 c50 -1 80
-4 65 -6z m1422 -93 l0 -100 -65 0 -65 0 0 94 0 95 -27 4 c-16 2 14 5 65 6
l92 1 0 -100z m-1267 62 c-8 -5 -13 -41 -15 -97 l-3 -90 -75 0 -75 0 -3 98 -3
97 93 0 c51 0 88 -4 81 -8z m1117 -92 l0 -100 -75 0 -75 0 0 94 c0 82 -2 95
-17 99 -10 3 24 5 75 6 l92 1 0 -100z m-940 65 c0 -8 -9 -15 -20 -15 -18 0
-20 -7 -20 -85 l0 -85 -70 0 -70 0 0 100 0 100 90 0 c73 0 90 -3 90 -15z m778
-87 l3 -98 -71 0 -70 0 0 85 c0 84 0 85 -25 85 -25 0 -32 10 -18 24 4 4 46 5
93 4 l85 -3 3 -97z m-628 52 c0 -5 -9 -10 -20 -10 -19 0 -20 -7 -20 -95 l0
-96 -67 3 -68 3 -3 89 c-2 49 -1 95 2 103 6 16 176 19 176 3z m470 -95 l0
-105 -65 0 -65 0 0 95 0 95 -26 0 c-14 0 -23 4 -19 10 3 6 44 10 91 10 l84 0
0 -105z m-330 55 c0 -18 -7 -20 -55 -20 l-54 0 -3 -77 c-3 -72 -5 -78 -25 -81
-23 -3 -23 -1 -23 97 l0 101 80 0 c73 0 80 -2 80 -20z m180 -80 l0 -100 -25 0
c-25 0 -25 1 -25 80 l0 80 -55 0 c-48 0 -55 2 -55 20 0 18 7 20 80 20 l80 0 0
-100z m-62 -47 l-3 -88 -107 -3 -108 -3 0 91 0 90 110 0 111 0 -3 -87z m-2255
-487 c64 -75 67 -81 67 -130 0 -92 -72 -176 -150 -176 -23 0 -43 12 -82 50
-28 28 -54 46 -57 42 -3 -5 -28 -36 -55 -71 l-50 -62 -22 28 c-13 15 -21 34
-19 41 10 27 280 362 290 359 5 -2 40 -39 78 -81z m4436 4 c50 -25 113 -98
148 -168 35 -71 37 -162 5 -213 -74 -120 -169 -126 -275 -18 -108 110 -140
236 -84 332 49 83 126 108 206 67z m-4176 -268 c53 -56 57 -64 57 -107 0 -57
-22 -107 -63 -141 -25 -21 -38 -25 -69 -21 l-38 5 0 -41 c0 -52 -21 -199 -30
-210 -3 -4 -20 8 -37 25 l-30 33 15 112 c14 103 13 114 -2 138 -9 14 -20 25
-25 25 -5 0 -32 -36 -61 -80 l-53 -81 -28 27 c-28 27 -28 29 -13 53 9 14 69
105 133 203 l116 176 35 -28 c19 -15 61 -55 93 -88z m3846 -210 l104 -162 73
65 72 65 21 -36 22 -36 -63 -57 c-35 -32 -80 -72 -100 -90 l-37 -32 -29 43
c-16 24 -75 114 -131 202 l-103 158 23 24 c13 14 28 23 33 21 6 -2 58 -76 115
-165z m-3612 19 c26 -12 52 -35 70 -62 25 -37 28 -52 28 -119 0 -68 -4 -84
-37 -152 -61 -123 -155 -188 -228 -158 -48 20 -79 48 -101 93 -45 88 -6 246
85 346 66 71 111 84 183 52z m3550 -215 l122 -120 -32 -23 -31 -23 -38 37
c-43 42 -49 40 -122 -21 l-38 -33 13 -58 13 -58 -29 -23 c-16 -13 -32 -20 -36
-16 -6 8 -121 514 -117 516 2 1 16 12 32 25 l30 22 55 -53 c31 -29 111 -107
178 -172z m-327 52 c0 -3 -17 -17 -37 -30 -20 -13 -40 -26 -45 -29 -5 -3 30
-90 77 -194 64 -142 82 -191 73 -197 -29 -19 -50 -29 -54 -26 -2 3 -40 85 -85
184 -45 98 -83 181 -84 182 -2 2 -21 -8 -42 -22 -20 -14 -41 -26 -45 -26 -10
0 -44 68 -37 74 2 2 58 38 124 80 l119 77 18 -33 c9 -18 17 -36 18 -40z
m-3004 -22 c-12 -48 -57 -329 -54 -338 2 -5 50 52 107 127 57 75 107 134 110
132 3 -1 18 -9 34 -16 15 -8 27 -17 27 -20 0 -3 -61 -82 -136 -176 -75 -93
-144 -180 -154 -193 l-18 -22 -36 21 c-24 14 -35 27 -32 38 2 9 21 122 41 251
20 129 38 241 41 247 2 9 14 7 39 -9 28 -16 35 -26 31 -42z m2719 -93 c4 -10
26 -72 50 -138 24 -66 59 -164 79 -218 l35 -98 -35 -16 -35 -17 -120 119 c-89
89 -117 112 -108 90 6 -16 31 -85 55 -152 l43 -123 -30 -16 c-17 -8 -32 -14
-33 -12 -6 8 -166 457 -166 465 0 6 14 16 31 23 l31 13 119 -119 c65 -65 119
-116 119 -112 0 3 -22 68 -50 144 -27 76 -50 144 -50 151 0 13 27 32 46 33 7
0 15 -8 19 -17z m-2444 -41 l27 -17 -85 -230 c-46 -126 -86 -231 -88 -234 -7
-6 -65 20 -65 30 0 6 52 151 165 457 6 16 15 15 46 -6z m126 -66 c1 -1 9 -71
18 -156 24 -228 21 -226 72 -55 25 83 46 151 47 153 2 1 17 -3 35 -9 22 -8 30
-16 27 -28 -60 -202 -139 -467 -141 -469 -2 -2 -18 3 -36 11 l-34 13 -20 180
-21 179 -16 -50 c-9 -27 -31 -96 -48 -153 l-31 -102 -29 15 c-17 9 -30 19 -30
24 0 4 32 113 70 241 39 128 70 235 70 237 0 3 58 -24 67 -31z m2024 -105 c51
-53 83 -132 95 -236 13 -110 -42 -209 -131 -234 -106 -29 -192 67 -226 253
-28 152 43 266 165 266 46 0 53 -3 97 -49z m-1630 -34 c41 -27 69 -79 69 -129
0 -40 -9 -45 -57 -32 -17 5 -23 14 -23 34 0 43 -54 79 -91 60 -12 -7 -19 -21
-19 -40 0 -23 11 -37 60 -75 33 -25 68 -61 77 -78 37 -71 6 -199 -57 -232 -40
-21 -78 -19 -130 8 -55 28 -80 73 -80 144 0 46 3 53 19 53 32 0 51 -11 51 -30
0 -35 22 -78 46 -89 35 -16 51 -14 74 9 36 36 26 65 -39 117 -63 51 -101 110
-101 159 1 40 33 108 61 128 34 23 99 20 140 -7z m1286 -39 c62 -69 66 -190 8
-236 l-24 -19 24 -23 c29 -27 129 -169 123 -175 -2 -2 -22 -7 -44 -11 l-41 -6
-56 81 c-60 85 -82 103 -114 95 -19 -5 -19 -7 -2 -107 9 -56 16 -103 14 -105
-1 -1 -17 -7 -34 -12 -23 -6 -33 -6 -36 3 -7 20 -83 492 -80 495 8 9 156 40
196 41 35 1 50 -4 66 -21z m-1099 -7 c11 -6 7 -54 -22 -256 -20 -137 -37 -249
-39 -251 -1 -1 -17 1 -34 3 -23 4 -33 11 -33 23 0 20 57 421 66 463 6 28 34
36 62 18z m731 -36 c75 -38 115 -135 114 -277 0 -73 -4 -94 -27 -142 -34 -69
-74 -96 -144 -96 -44 0 -57 5 -88 33 -55 47 -76 105 -82 217 -5 104 6 159 41
211 41 62 125 86 186 54z m-332 -15 c39 -24 62 -57 70 -102 4 -31 2 -36 -18
-41 -39 -11 -45 -8 -62 28 -28 58 -98 59 -141 2 -30 -40 -35 -196 -9 -247 33
-64 96 -77 143 -30 28 28 27 70 -2 70 -54 0 -63 8 -60 53 l4 42 74 -3 74 -4 0
-102 c0 -115 -7 -129 -82 -161 -74 -30 -141 -15 -192 45 -91 108 -65 376 43
448 43 28 113 30 158 2z"/>
<path d="M8891 11306 c0 -10 -12 -39 -25 -65 l-23 -47 48 -54 48 -55 -15 59
c-9 33 -19 87 -24 120 -4 34 -8 53 -9 42z"/>
<path d="M9102 11109 c-1 -14 -15 -52 -31 -84 l-29 -58 46 -58 c26 -32 47 -57
49 -56 1 2 -3 23 -9 47 -6 25 -14 88 -18 140 -4 52 -8 83 -8 69z"/>
<path d="M9258 10772 l-28 -41 32 -46 c17 -24 32 -44 33 -42 1 1 -1 40 -4 86
l-6 85 -27 -42z"/>
<path d="M9423 10560 c-18 -21 -33 -42 -33 -47 0 -4 15 -29 34 -55 l33 -47 -1
94 c-1 52 -1 95 -1 95 0 0 -15 -18 -32 -40z"/>
<path d="M10064 9549 c-10 -12 -38 -34 -60 -48 l-41 -27 31 -77 c18 -42 35
-79 38 -82 3 -3 8 25 11 62 3 38 15 95 26 127 12 33 20 61 18 63 -2 2 -12 -7
-23 -18z"/>
<path d="M10540 8074 c-25 -18 -71 -44 -102 -55 l-58 -22 6 -36 c3 -20 9 -60
12 -90 l7 -54 47 94 c26 52 68 118 93 147 26 28 45 52 43 51 -2 0 -23 -16 -48
-35z"/>
<path d="M10215 7220 c43 -55 86 -133 111 -200 12 -34 13 -33 13 40 1 41 4 99
7 128 7 50 6 52 -17 53 -13 0 -54 8 -91 18 l-66 17 43 -56z"/>
<path d="M10080 6444 c0 -3 11 -20 24 -37 38 -50 95 -176 108 -239 7 -32 15
-58 18 -58 7 0 50 250 50 286 0 19 -8 22 -74 27 -40 4 -85 11 -100 17 -14 5
-26 7 -26 4z"/>
<path d="M9649 4329 c-118 -237 -122 -247 -66 -188 25 26 54 50 65 53 43 14
99 -43 88 -89 -3 -13 -21 -41 -38 -61 -27 -30 -29 -36 -13 -33 15 3 47 57 117
194 103 202 109 220 96 254 -6 18 -11 20 -27 11 -32 -17 -68 -11 -100 16 l-30
25 -92 -182z"/>
<path d="M2794 3807 c33 -43 34 -86 3 -115 -38 -36 -71 -29 -122 26 -38 40
-45 44 -45 26 0 -12 52 -93 116 -180 134 -183 152 -204 172 -204 9 0 -2 16
-26 38 -30 27 -42 47 -42 66 0 37 17 65 46 76 31 12 61 1 108 -40 20 -18 36
-27 36 -21 0 12 -256 361 -265 361 -3 0 5 -15 19 -33z"/>
<path d="M9187 3653 c-125 -172 -150 -218 -84 -156 49 47 74 57 107 43 32 -13
55 -58 45 -89 -3 -12 -23 -37 -43 -57 -28 -27 -32 -35 -18 -32 20 3 246 298
271 353 22 49 6 49 -37 0 -44 -50 -80 -58 -116 -27 -34 28 -36 63 -8 105 14
20 22 37 18 37 -4 0 -65 -80 -135 -177z"/>
<path d="M8655 3111 c-82 -76 -151 -144 -153 -151 -3 -8 14 -2 41 13 59 35 99
35 126 1 38 -48 24 -92 -42 -126 -32 -17 -38 -23 -23 -26 10 -2 31 8 50 25 17
16 87 80 156 143 135 123 143 132 138 157 -2 13 -14 7 -51 -25 -55 -47 -95
-54 -127 -22 -31 31 -26 78 12 117 64 66 20 29 -127 -106z"/>
<path d="M3349 3192 c17 -33 13 -67 -12 -90 -34 -33 -68 -27 -126 19 -29 23
-54 40 -56 37 -16 -16 27 -65 168 -192 100 -91 168 -146 181 -146 16 1 12 6
-19 25 -22 14 -46 32 -52 42 -19 25 -16 70 7 93 27 27 68 25 124 -6 25 -14 46
-22 46 -17 0 5 -61 65 -136 133 -75 68 -131 114 -125 102z"/>
<path d="M3978 2699 c6 -60 -40 -99 -93 -79 -26 10 -30 4 -19 -25 11 -28 361
-255 392 -254 22 0 18 4 -23 20 -27 11 -56 27 -62 36 -21 27 -16 77 10 101 29
27 48 27 115 2 30 -11 51 -16 47 -10 -6 10 -309 216 -350 237 -19 11 -20 9
-17 -28z"/>
<path d="M7955 2627 c-193 -129 -228 -160 -146 -128 67 27 87 26 116 -4 47
-46 24 -104 -56 -136 -35 -14 -39 -18 -19 -18 16 -1 84 38 185 105 180 120
205 140 205 165 0 15 -4 17 -22 10 -31 -11 -63 2 -84 34 -14 22 -16 32 -7 56
6 16 8 29 5 29 -4 0 -84 -51 -177 -113z"/>
<path d="M4733 2323 c24 -27 22 -78 -5 -103 -26 -24 -51 -25 -108 -5 -51 18
-58 14 -37 -19 19 -29 7 -25 248 -86 130 -33 198 -46 212 -41 18 7 11 11 -36
21 -70 14 -97 37 -97 84 0 51 40 80 99 71 24 -4 51 -9 60 -12 12 -5 13 -3 5 6
-6 7 -80 30 -164 51 -85 22 -163 43 -174 46 -20 6 -20 6 -3 -13z"/>
<path d="M7214 2296 c-88 -24 -169 -49 -180 -55 -17 -11 -17 -12 6 -7 96 20
108 19 134 -7 48 -48 23 -117 -46 -131 -87 -18 -85 -17 -61 -26 30 -12 433 93
450 117 19 25 17 47 -4 38 -10 -4 -35 -12 -55 -18 -73 -21 -125 34 -94 100 9
18 15 33 13 32 -1 0 -74 -20 -163 -43z"/>
<path d="M5494 2139 c33 -26 36 -79 5 -110 -18 -18 -30 -20 -69 -17 -52 5 -59
-9 -17 -30 27 -14 386 -55 430 -49 19 2 8 4 -25 5 -70 2 -98 24 -98 77 0 54
30 75 109 75 57 0 63 2 51 14 -10 10 -77 22 -194 35 -228 27 -226 27 -192 0z"/>
<path d="M6415 2139 c-82 -10 -161 -21 -175 -25 -22 -6 -20 -8 20 -15 51 -10
80 -38 80 -78 0 -37 -18 -58 -65 -75 l-40 -15 38 0 c75 -2 402 41 425 55 33
21 27 30 -17 26 -48 -5 -79 11 -92 45 -11 31 4 78 30 93 23 14 -27 11 -204
-11z"/>
<path d="M5735 4544 c-11 -3 -82 -26 -158 -50 -89 -29 -157 -45 -191 -45 -53
-1 -54 -1 -232 -143 l-179 -142 -23 -95 c-12 -52 -22 -97 -22 -101 0 -5 196
-8 437 -8 l436 0 34 39 c42 49 125 91 172 85 47 -5 129 -53 158 -91 l25 -33
440 0 c414 0 439 1 434 18 -3 9 -15 56 -27 104 l-21 87 -175 138 -175 138 -60
3 c-40 2 -105 18 -189 47 -71 24 -155 47 -188 51 -69 8 -149 -12 -200 -50 -30
-22 -37 -24 -50 -12 -52 45 -181 77 -246 60z m197 -51 l53 -30 3 -163 3 -162
-47 40 c-57 51 -126 75 -213 74 -79 -1 -116 -9 -298 -63 -114 -34 -157 -42
-248 -46 -81 -4 -119 -2 -144 9 l-34 14 165 132 c165 132 166 132 218 132 36
0 95 14 184 44 173 58 161 55 238 52 52 -3 78 -10 120 -33z m485 -17 c92 -30
159 -46 192 -46 49 0 53 -2 216 -132 190 -151 190 -150 35 -156 -102 -4 -136
2 -385 72 -216 61 -324 51 -424 -39 l-41 -37 0 160 0 161 31 22 c87 62 176 61
376 -5z m-550 -269 c42 -22 103 -76 103 -91 0 -6 -21 -20 -47 -30 -26 -11 -67
-39 -90 -63 l-44 -43 -418 0 -419 0 21 81 c18 73 22 80 41 74 120 -35 215 -26
446 39 85 25 164 47 175 50 44 11 200 0 232 -17z m667 -30 c212 -62 298 -74
395 -53 41 9 75 15 76 13 4 -5 35 -137 35 -147 0 -7 -134 -10 -416 -10 l-417
0 -49 46 c-27 25 -69 55 -94 66 l-46 20 33 35 c95 100 216 107 483 30z"/>
<path d="M5655 4456 c-33 -8 -100 -26 -150 -41 -49 -14 -109 -29 -132 -32 -24
-3 -43 -10 -43 -15 0 -15 76 -1 208 38 176 52 284 54 395 9 9 -4 17 -3 17 3 0
17 -91 43 -165 47 -40 3 -96 -1 -130 -9z"/>
<path d="M5595 4354 c-129 -37 -252 -58 -291 -48 -16 4 -24 2 -24 -6 0 -26
184 -5 315 35 139 42 243 50 309 21 39 -16 64 -13 36 5 -64 40 -189 38 -345
-7z"/>
<path d="M5718 4290 c-31 -5 -117 -23 -190 -41 -76 -17 -175 -33 -230 -36 -55
-4 -98 -10 -98 -16 0 -19 182 1 340 36 224 51 306 55 393 22 9 -4 17 -3 17 4
0 24 -146 44 -232 31z"/>
<path d="M6145 4460 c-58 -15 -95 -31 -95 -42 0 -6 8 -7 18 -3 105 45 210 43
392 -10 146 -42 200 -52 200 -37 0 5 -20 13 -45 16 -24 4 -97 23 -162 42 -127
37 -241 50 -308 34z"/>
<path d="M6088 4373 c-21 -8 -38 -20 -38 -25 0 -6 8 -7 18 -3 97 42 167 39
352 -16 118 -35 300 -53 300 -29 0 8 -9 11 -27 7 -47 -9 -172 11 -297 48 -135
40 -242 46 -308 18z"/>
<path d="M6150 4294 c-47 -8 -100 -25 -100 -33 0 -4 28 -2 63 6 78 17 154 10
317 -27 159 -37 240 -50 313 -50 95 0 64 17 -40 23 -58 3 -162 19 -253 40
-154 35 -252 48 -300 41z"/>
<path d="M3731 4149 l-43 -54 40 -37 c44 -40 71 -42 97 -5 24 34 18 70 -18
112 l-33 38 -43 -54z"/>
<path d="M8173 4155 c-27 -19 -46 -75 -37 -111 18 -81 111 -184 163 -184 17 0
42 10 58 24 57 50 27 165 -66 249 -45 40 -82 47 -118 22z"/>
<path d="M3961 3913 l-31 -48 37 -33 c60 -52 67 -54 97 -31 39 31 34 65 -16
116 -23 24 -45 43 -49 43 -4 0 -21 -21 -38 -47z"/>
<path d="M4222 3670 c-78 -78 -108 -215 -57 -265 53 -54 126 -17 176 90 38 79
39 145 4 180 -35 36 -85 34 -123 -5z"/>
<path d="M7692 3645 c3 -5 13 -45 23 -87 9 -43 20 -78 24 -78 4 0 21 12 39 28
l33 27 -62 60 c-34 33 -59 56 -57 50z"/>
<path d="M6833 3226 c-26 -22 -28 -30 -28 -93 1 -87 18 -144 56 -188 24 -26
39 -35 63 -35 69 0 101 83 76 192 -31 133 -98 183 -167 124z"/>
<path d="M6507 3138 c-41 -11 -40 -6 -21 -109 l5 -27 50 13 c65 17 79 30 79
71 0 59 -32 73 -113 52z"/>
<path d="M6177 3089 c-67 -39 -72 -240 -7 -309 67 -72 150 -5 150 122 0 138
-70 229 -143 187z"/>
</g>
</svg>
