<?xml version="1.0" standalone="no"?>
<!DOCTYPE svg PUBLIC "-//W3C//DTD SVG 20010904//EN"
 "http://www.w3.org/TR/2001/REC-SVG-20010904/DTD/svg10.dtd">
<svg version="1.0" xmlns="http://www.w3.org/2000/svg"
 width="500.000000pt" height="500.000000pt" viewBox="0 0 500.000000 500.000000"
 preserveAspectRatio="xMidYMid meet">

<g transform="translate(0.000000,500.000000) scale(0.100000,-0.100000)"
fill="#000000" stroke="none">
<path d="M1482 4355 c-150 -78 -278 -147 -284 -153 -8 -8 -7 -28 5 -72 23 -80
22 -90 -7 -90 -40 0 -76 -52 -76 -109 0 -41 -3 -49 -25 -59 -34 -16 -40 -34
-20 -71 12 -24 13 -36 5 -51 -9 -16 -7 -26 9 -46 11 -14 17 -32 14 -40 -3 -8
0 -21 6 -28 7 -8 14 -27 17 -43 6 -31 45 -68 55 -51 4 6 16 7 29 3 15 -5 20
-4 16 4 -4 6 -16 11 -27 11 -38 0 -61 20 -55 46 5 17 2 24 -9 24 -17 0 -21 35
-5 45 6 4 0 15 -14 26 -25 20 -26 49 -1 49 7 0 31 -21 54 -47 22 -27 40 -42
41 -34 0 8 -27 41 -60 73 -67 64 -79 103 -37 113 22 6 23 10 19 59 -5 61 12
86 59 86 39 0 51 -28 21 -48 -31 -20 -28 -40 19 -129 34 -63 43 -93 50 -157 5
-51 17 -97 34 -132 30 -62 29 -88 -3 -92 l-22 -3 22 -19 c17 -14 27 -16 41 -8
23 12 29 6 51 -54 41 -110 129 -213 225 -260 37 -18 63 -23 131 -23 76 0 91 4
146 32 96 50 177 151 214 268 17 55 18 56 40 43 14 -9 22 -9 34 1 14 12 13 15
-7 31 l-22 18 28 58 c19 38 31 84 37 134 5 54 17 95 44 150 39 80 47 130 20
130 -10 0 -14 7 -12 23 4 29 43 35 70 10 16 -15 19 -27 16 -69 -4 -44 -2 -52
16 -60 38 -17 30 -43 -33 -109 -62 -64 -69 -75 -51 -75 5 0 21 18 35 40 16 25
33 40 45 40 25 0 26 -28 3 -45 -13 -10 -15 -16 -6 -27 14 -16 7 -30 -22 -46
-11 -6 -14 -12 -7 -12 6 0 12 -9 12 -20 0 -14 -9 -21 -35 -26 -19 -3 -37 -10
-40 -14 -7 -11 64 -5 75 6 13 14 40 97 34 106 -3 4 4 21 14 36 16 21 18 32 10
46 -8 14 -8 24 1 37 20 32 13 68 -14 81 -22 10 -25 18 -25 59 0 59 -32 102
-76 105 -33 1 -33 0 -7 107 13 58 13 71 2 81 -8 8 -133 74 -279 149 l-266 135
-272 -143z m268 60 c0 -8 -6 -15 -14 -15 -17 0 -28 14 -19 24 12 12 33 6 33
-9z m55 -5 c3 -5 -1 -10 -9 -10 -8 0 -18 5 -21 10 -3 6 1 10 9 10 8 0 18 -4
21 -10z m-122 -16 c9 -10 -4 -34 -18 -34 -17 0 -28 17 -20 30 7 11 28 13 38 4z
m187 -9 c20 -24 -2 -42 -32 -27 l-23 11 24 0 c20 1 21 3 11 16 -7 8 -8 15 -2
15 5 0 15 -7 22 -15z m60 -41 c0 -17 -6 -24 -19 -24 -11 0 -23 5 -26 10 -3 6
4 10 16 10 18 0 20 3 11 12 -17 17 -15 29 3 22 8 -4 15 -17 15 -30z m-322 -18
c-4 -25 -36 -34 -44 -12 -10 26 3 45 26 39 14 -4 20 -12 18 -27z m379 -20 c-7
-18 -42 -22 -52 -6 -3 6 3 10 13 10 16 0 19 5 15 23 -5 21 -5 21 12 5 10 -9
15 -23 12 -32z m-219 -11 c7 -16 20 -25 33 -25 21 0 21 -1 4 -20 -10 -11 -15
-28 -12 -40 6 -23 3 -24 -23 -10 -13 7 -21 6 -30 -5 -22 -26 -40 -18 -34 15 5
22 2 31 -10 36 -24 9 -21 37 4 29 15 -5 23 0 32 19 14 32 22 33 36 1z m261 11
c6 -7 9 -21 5 -30 -4 -11 -1 -16 11 -16 12 0 15 5 10 20 -9 27 11 26 26 -2 9
-18 8 -24 -5 -34 -14 -10 -25 -8 -62 9 -40 20 -42 22 -19 25 21 3 23 6 15 23
-12 22 2 26 19 5z m-501 -11 c1 -1 -2 -14 -7 -29 -12 -31 -36 -34 -51 -7 -16
31 -2 52 29 45 14 -4 27 -8 29 -9z m602 -60 c0 -20 -27 -37 -50 -30 -24 8 -17
25 11 25 17 0 19 4 13 22 -6 20 -5 21 10 9 9 -7 16 -19 16 -26z m-683 13 c-9
-6 -8 -8 3 -8 10 0 7 -5 -8 -16 -12 -8 -20 -19 -17 -24 3 -4 -2 -11 -11 -14
-25 -9 -34 -7 -34 8 0 8 -4 16 -9 18 -5 2 -5 12 -1 23 6 15 17 20 49 20 23 1
35 -2 28 -7z m723 -38 c0 -13 5 -17 20 -13 39 10 72 -49 35 -63 -18 -7 -20
-35 -4 -51 16 -16 1 -91 -22 -114 -13 -13 -17 -27 -13 -43 8 -33 -13 -106 -31
-106 -17 0 -20 -26 -5 -35 17 -11 -1 -88 -26 -113 -25 -24 -31 -42 -14 -42 6
0 10 -13 10 -29 0 -41 -20 -91 -36 -91 -17 0 -19 -16 -3 -26 7 -4 8 -20 4 -43
-10 -59 -16 -71 -31 -71 -12 0 -14 -7 -9 -29 8 -39 -29 -100 -67 -108 -21 -4
-28 -11 -28 -29 0 -29 -70 -69 -105 -60 -17 4 -24 1 -28 -14 -4 -17 -14 -20
-61 -20 -40 0 -58 4 -62 15 -4 9 -15 12 -32 9 -36 -7 -95 26 -102 57 -3 13
-12 25 -20 25 -8 1 -20 2 -26 3 -19 2 -55 78 -49 104 5 17 2 26 -9 30 -20 8
-38 79 -30 122 5 28 3 35 -10 35 -20 0 -40 71 -31 111 5 23 2 33 -16 48 -20
16 -24 28 -24 80 0 38 -4 62 -12 65 -17 7 -36 83 -28 113 4 17 1 29 -10 37
-23 16 -36 83 -23 112 9 20 7 26 -12 42 -39 32 -4 86 41 62 20 -11 26 -45 9
-55 -17 -10 -11 -32 9 -38 14 -3 21 -17 26 -51 4 -25 5 -53 1 -61 -3 -9 3 -24
13 -34 23 -23 38 -98 22 -114 -15 -15 -14 -27 4 -27 28 0 53 -87 34 -122 -9
-17 -7 -24 17 -43 25 -20 28 -29 29 -83 0 -48 4 -64 18 -75 14 -9 20 -28 21
-69 2 -37 9 -62 20 -73 22 -22 47 -71 44 -87 -2 -7 4 -12 12 -13 29 0 100 -38
100 -53 0 -10 5 -12 18 -6 9 5 40 9 69 9 37 0 56 5 65 17 12 16 78 49 95 48 5
0 9 11 11 24 2 14 17 40 34 58 26 28 31 42 33 87 1 43 6 57 25 71 19 14 21 21
13 32 -16 19 -4 96 16 111 13 9 17 28 16 79 0 59 3 70 23 84 18 12 20 19 12
29 -18 21 -2 103 22 116 15 8 18 17 13 39 -7 31 11 110 24 110 14 0 22 33 11
44 -5 5 -10 18 -10 28 0 13 -8 18 -30 18 -16 0 -30 5 -30 10 0 6 11 10 24 10
20 0 23 4 18 22 -3 14 -2 19 6 14 7 -4 12 -15 12 -26z m-234 -35 c3 -19 3 -46
0 -60 l-7 -26 29 21 c34 25 57 19 77 -21 23 -43 18 -52 -14 -28 -17 13 -39 19
-57 17 l-29 -3 32 -30 c22 -21 34 -43 39 -72 9 -57 -9 -56 -44 2 -15 24 -31
45 -36 45 -10 0 0 -154 15 -233 5 -28 23 -81 40 -117 24 -52 28 -71 20 -90 -9
-25 -9 -24 -26 15 -36 83 -56 181 -62 308 -3 70 -9 127 -12 127 -4 0 -15 -16
-25 -35 -10 -19 -27 -42 -37 -51 -18 -16 -19 -15 -19 21 0 40 30 85 57 85 7 0
13 9 13 20 0 30 -34 25 -69 -11 -34 -33 -39 -26 -17 25 18 44 32 51 61 32 24
-16 24 -15 34 22 6 20 11 45 11 55 0 31 19 18 26 -18z m-566 8 c0 -7 -10 -13
-22 -12 -13 0 -17 3 -10 6 6 2 10 8 8 12 -3 4 1 8 9 8 8 0 15 -6 15 -14z m233
-15 c3 -18 8 -42 10 -53 3 -11 6 -22 6 -24 1 -3 6 0 13 7 22 22 57 14 73 -18
8 -16 15 -38 15 -50 0 -18 -3 -18 -27 9 -37 39 -73 50 -73 23 0 -13 9 -22 25
-26 30 -8 57 -57 53 -94 -4 -39 -17 -33 -57 26 l-36 53 -6 -123 c-7 -132 -25
-224 -59 -302 -16 -36 -24 -45 -31 -35 -14 23 -10 60 10 93 30 49 51 142 57
256 l6 105 -33 -52 c-19 -29 -37 -53 -41 -53 -5 0 -8 20 -8 45 0 45 4 51 57
95 17 14 16 15 -10 18 -19 2 -40 -5 -63 -23 -21 -16 -34 -21 -34 -13 0 20 38
78 52 79 27 3 43 -3 57 -19 12 -15 12 -12 7 19 -7 38 7 89 23 89 5 0 11 -15
14 -32z m-318 -375 l5 -38 -25 50 c-16 33 -24 66 -24 95 l1 45 18 -57 c11 -31
21 -74 25 -95z m988 122 c7 -38 -10 -105 -38 -150 -21 -35 -24 -37 -25 -16 0
13 6 49 14 80 8 31 17 68 20 84 8 34 22 35 29 2z m-513 -253 l0 -37 21 25 21
25 -5 -27 c-2 -16 0 -28 6 -28 15 0 0 -58 -23 -90 -11 -15 -20 -40 -20 -56 0
-26 1 -26 18 -10 18 15 22 15 65 -4 26 -12 47 -25 47 -31 0 -5 -19 -19 -43
-30 -36 -17 -46 -30 -62 -72 -11 -28 -25 -52 -31 -54 -9 -3 -49 70 -49 92 0 6
-22 20 -50 32 -27 12 -50 26 -50 33 0 6 21 21 48 32 46 20 48 20 67 3 19 -18
20 -17 20 4 0 11 -13 40 -30 63 -29 40 -43 107 -19 92 8 -4 9 3 4 25 -7 33 7
43 23 15 7 -13 10 -10 15 16 9 41 27 29 27 -18z m436 -43 c-7 -63 -23 -109
-37 -109 -5 0 -7 6 -5 13 3 6 12 45 21 85 10 39 20 72 22 72 3 0 2 -27 -1 -61z
m-848 -79 c0 -24 0 -24 -13 5 -8 17 -14 46 -14 65 l1 35 13 -40 c8 -22 13 -51
13 -65z"/>
<path d="M2187 4173 c-13 -12 -7 -23 13 -23 11 0 20 7 20 15 0 15 -21 21 -33
8z"/>
<path d="M1264 4159 c-9 -15 -2 -18 20 -9 17 6 18 7 3 13 -9 3 -19 2 -23 -4z"/>
<path d="M1288 4048 c-9 -26 4 -57 23 -55 22 1 23 6 9 41 -10 28 -26 34 -32
14z"/>
<path d="M2164 4034 c-4 -17 -2 -29 7 -34 19 -13 29 -2 29 31 0 37 -27 39 -36
3z"/>
<path d="M1333 3902 c-19 -12 -4 -52 19 -52 15 0 18 5 13 23 -10 30 -18 38
-32 29z"/>
<path d="M2126 3894 c-11 -29 -6 -44 14 -44 16 0 20 7 20 30 0 32 -23 42 -34
14z"/>
<path d="M2096 3754 c-10 -27 -7 -52 8 -57 15 -6 26 12 26 43 0 23 -26 34 -34
14z"/>
<path d="M1360 3738 c0 -34 16 -56 30 -42 17 17 8 58 -12 62 -13 3 -18 -3 -18
-20z"/>
<path d="M1413 3603 c-16 -6 -17 -28 -2 -54 14 -28 38 -8 31 26 -5 28 -11 34
-29 28z"/>
<path d="M2057 3583 c-6 -32 -1 -43 19 -43 9 0 14 11 14 35 0 43 -25 48 -33 8z"/>
<path d="M2026 3445 c-11 -30 -6 -45 15 -45 16 0 20 5 17 27 -3 31 -23 41 -32
18z"/>
<path d="M1445 3440 c-10 -16 4 -50 21 -50 11 0 14 8 12 27 -3 28 -22 41 -33
23z"/>
<path d="M1976 3309 c-20 -29 -20 -35 -1 -43 19 -7 39 29 27 50 -8 14 -11 13
-26 -7z"/>
<path d="M1490 3286 c0 -21 23 -36 40 -26 11 7 11 11 1 24 -16 20 -41 21 -41
2z"/>
<path d="M1870 3207 c-9 -7 -14 -20 -12 -30 3 -16 5 -16 32 -1 16 10 26 23 23
31 -6 16 -23 16 -43 0z"/>
<path d="M1600 3185 c0 -15 30 -35 52 -35 10 0 10 2 -1 9 -7 5 -11 13 -7 19 3
5 -1 13 -10 16 -25 9 -34 7 -34 -9z"/>
<path d="M1727 3150 c-4 -17 0 -20 23 -20 23 0 28 4 27 20 -1 13 -8 20 -23 20
-13 0 -24 -8 -27 -20z"/>
<path d="M1905 4070 c3 -5 8 -10 11 -10 2 0 4 5 4 10 0 6 -5 10 -11 10 -5 0
-7 -4 -4 -10z"/>
<path d="M1585 4060 c-3 -5 -2 -10 4 -10 5 0 13 5 16 10 3 6 2 10 -4 10 -5 0
-13 -4 -16 -10z"/>
<path d="M1742 3428 c-18 -18 -15 -27 8 -25 22 1 24 6 12 24 -6 10 -11 10 -20
1z"/>
<path d="M1146 3814 c-4 -10 10 -32 40 -62 l46 -47 -33 63 c-35 65 -43 72 -53
46z"/>
<path d="M2333 3808 c-6 -7 -21 -33 -33 -58 l-23 -45 23 20 c38 34 63 76 53
86 -6 6 -14 5 -20 -3z"/>
<path d="M1157 3664 c3 -8 14 -19 25 -25 17 -9 18 -8 9 9 -13 24 -43 38 -34
16z"/>
<path d="M2325 3660 c-27 -30 -12 -34 15 -5 13 14 19 25 13 25 -5 0 -18 -9
-28 -20z"/>
<path d="M1180 3595 c7 -8 20 -15 29 -15 13 1 13 3 -3 15 -26 19 -42 19 -26 0z"/>
<path d="M2300 3595 c-10 -12 -10 -15 3 -15 8 0 17 7 21 15 3 8 2 15 -3 15 -5
0 -14 -7 -21 -15z"/>
<path d="M1180 3511 c0 -6 27 -20 92 -49 5 -2 8 3 8 12 0 9 -8 16 -19 16 -11
0 -22 4 -25 9 -7 11 -56 21 -56 12z"/>
<path d="M2293 3513 c-13 -2 -23 -9 -23 -14 0 -5 -9 -9 -20 -9 -11 0 -20 -7
-20 -15 0 -20 12 -19 43 5 14 11 30 20 35 20 6 0 14 5 17 10 3 6 3 9 -2 9 -4
-1 -18 -4 -30 -6z"/>
<path d="M1320 3360 c-12 -8 -12 -10 4 -16 13 -5 16 -13 12 -30 -7 -26 8 -33
18 -9 3 9 12 12 23 8 17 -6 17 -5 0 15 -11 11 -16 26 -12 31 8 13 -24 14 -45
1z"/>
<path d="M2146 3348 c-21 -29 -20 -57 1 -65 21 -8 55 33 51 61 -4 29 -33 31
-52 4z m38 -7 c9 -14 -4 -41 -19 -41 -18 0 -26 15 -19 34 7 17 29 21 38 7z"/>
<path d="M2230 3359 c0 -8 -11 -40 -24 -71 -25 -62 -21 -80 7 -25 l16 32 1
-30 c0 -16 4 -36 9 -43 4 -7 6 21 4 65 -2 42 -6 79 -9 82 -2 2 -4 -2 -4 -10z"/>
<path d="M1276 3333 c7 -28 54 -114 54 -99 0 5 -10 35 -22 67 -23 60 -44 81
-32 32z"/>
<path d="M1363 3274 c-8 -22 17 -64 39 -64 25 0 33 25 20 56 -13 27 -49 33
-59 8z m57 -30 c0 -19 -39 -18 -47 2 -3 9 0 20 8 24 15 10 39 -6 39 -26z"/>
<path d="M1270 3255 c0 -8 5 -15 10 -15 6 0 10 7 10 15 0 8 -4 15 -10 15 -5 0
-10 -7 -10 -15z"/>
<path d="M2153 3254 c-4 -12 -14 -14 -34 -10 -36 7 -38 -7 -4 -22 22 -10 26
-9 40 18 9 17 13 30 10 30 -3 0 -8 -7 -12 -16z"/>
<path d="M1445 3209 c4 -5 -1 -19 -10 -29 -16 -18 -16 -19 18 -17 l35 2 -20
28 c-18 26 -37 39 -23 16z"/>
<path d="M2054 3196 c-3 -8 0 -25 7 -37 l12 -23 8 22 c5 12 15 25 24 28 8 3
12 10 9 15 -8 14 -54 10 -60 -5z"/>
<path d="M2009 3143 c-13 -14 -18 -23 -11 -19 8 5 21 1 33 -10 17 -16 19 -16
19 -1 0 10 -5 17 -11 17 -6 0 -9 9 -6 20 7 26 5 25 -24 -7z"/>
<path d="M1450 3130 c0 -5 6 -10 13 -10 8 0 20 -12 27 -27 12 -26 13 -27 21
-8 17 43 11 55 -26 55 -19 0 -35 -4 -35 -10z"/>
<path d="M1974 3095 c4 -11 -2 -15 -24 -15 -17 0 -30 -4 -30 -10 0 -5 -13 -10
-28 -10 -15 0 -33 -5 -40 -12 -14 -14 -118 -17 -148 -5 -14 6 -29 5 -43 -2
-16 -9 -26 -9 -42 0 -16 8 -20 8 -14 -1 5 -8 1 -11 -11 -8 -27 5 -31 38 -5 38
11 0 23 -4 26 -10 3 -5 12 -10 18 -10 22 1 -26 30 -49 30 -26 0 -36 -12 -28
-33 6 -18 52 -39 65 -31 6 3 18 -1 27 -9 27 -22 52 -28 74 -16 16 8 23 8 29
-2 8 -12 10 -12 18 0 6 10 13 11 29 2 28 -15 37 -14 23 3 -8 9 -8 16 -2 20 5
4 12 2 16 -4 10 -17 61 -11 79 9 11 12 25 17 34 14 11 -5 14 -2 9 10 -5 14 0
17 23 17 33 0 36 6 16 33 -16 21 -30 22 -22 2z m-74 -65 c0 -13 -7 -20 -19
-20 -25 0 -38 20 -20 31 23 15 39 10 39 -11z m-185 -21 c-7 -10 -38 -12 -48
-2 -4 3 -2 12 4 19 13 16 54 0 44 -17z m80 11 c-3 -5 -10 -10 -16 -10 -5 0 -9
5 -9 10 0 6 7 10 16 10 8 0 12 -4 9 -10z"/>
<path d="M1743 2933 c9 -2 25 -2 35 0 9 3 1 5 -18 5 -19 0 -27 -2 -17 -5z"/>
</g>
</svg>
