<?xml version="1.0" standalone="no"?>
<!DOCTYPE svg PUBLIC "-//W3C//DTD SVG 20010904//EN"
 "http://www.w3.org/TR/2001/REC-SVG-20010904/DTD/svg10.dtd">
<svg version="1.0" xmlns="http://www.w3.org/2000/svg"
 width="1082.000000pt" height="1229.000000pt" viewBox="0 0 1082.000000 1229.000000"
 preserveAspectRatio="xMidYMid meet">

<g transform="translate(0.000000,1229.000000) scale(0.100000,-0.100000)"
fill="#000000" stroke="none">
<path d="M4275 11674 c-649 -338 -1416 -738 -1705 -889 -289 -150 -763 -397
-1054 -549 -291 -151 -530 -277 -532 -278 -1 -2 6 -35 16 -73 60 -225 300
-1165 300 -1174 0 -6 -14 -4 -35 5 -90 37 -225 27 -343 -27 -211 -95 -365
-287 -434 -541 -20 -73 -23 -105 -22 -263 1 -167 3 -188 31 -295 17 -63 29
-118 26 -122 -2 -5 -19 -8 -36 -8 -18 0 -67 -9 -109 -20 -351 -88 -472 -366
-284 -649 42 -62 122 -147 190 -199 16 -12 27 -24 25 -25 -2 -2 -24 -15 -49
-29 -53 -31 -126 -101 -148 -143 -39 -75 -30 -172 25 -257 34 -56 132 -157
211 -220 l62 -50 -26 -31 c-68 -81 -84 -197 -39 -290 24 -52 90 -128 153 -180
l33 -27 -12 -60 c-17 -86 -8 -214 20 -275 44 -100 135 -168 280 -210 l73 -22
3 -99 c3 -149 42 -218 149 -265 44 -20 67 -23 168 -22 l116 1 6 -31 c10 -52
64 -135 108 -167 52 -38 125 -60 200 -60 59 0 59 0 75 -37 44 -107 142 -206
258 -260 55 -25 70 -28 173 -28 l114 0 -53 -23 c-96 -42 -291 -102 -419 -129
l-128 -26 13 -46 c7 -25 15 -87 18 -138 l4 -92 -64 -31 c-82 -41 -173 -125
-209 -195 -26 -50 -32 -55 -63 -55 -52 0 -96 -34 -127 -97 -24 -48 -28 -71
-32 -168 -6 -164 21 -291 98 -450 109 -225 264 -318 369 -222 14 13 49 29 78
35 88 19 207 70 299 128 48 30 91 51 95 47 4 -4 40 -68 79 -142 404 -758 949
-1356 1573 -1727 925 -550 1992 -622 2982 -199 820 351 1538 1038 2018 1932
45 84 87 153 93 153 6 0 19 -9 29 -20 30 -33 175 -122 249 -153 87 -37 196
-67 239 -67 134 0 296 309 314 597 12 205 -46 341 -147 343 -21 1 -30 12 -54
63 -35 72 -101 142 -169 177 l-49 25 6 115 c3 63 7 126 8 139 3 21 -2 26 -32
32 -72 16 -270 91 -385 148 l-120 59 45 1 c62 1 154 26 212 58 66 36 158 136
188 205 l25 56 70 7 c154 15 236 86 281 242 2 9 30 12 96 10 112 -2 173 13
226 59 56 48 75 99 78 219 l4 99 57 16 c227 62 327 215 293 449 l-12 81 72 76
c39 42 83 99 96 128 42 90 29 195 -36 287 l-21 29 38 32 c86 72 191 189 223
249 63 118 43 232 -55 318 -20 17 -54 43 -75 56 l-39 24 93 93 c76 76 100 109
136 181 40 80 44 97 48 175 3 72 0 97 -18 145 -28 75 -110 163 -189 206 -62
32 -193 71 -243 71 -16 0 -28 5 -28 13 0 7 12 57 26 112 32 124 44 342 24 462
-38 235 -161 443 -332 560 -96 65 -183 93 -287 93 -85 0 -162 -28 -214 -78
l-29 -27 8 30 c92 368 350 1472 345 1477 -4 5 -378 197 -831 429 -454 231
-946 483 -1095 559 -938 481 -2488 1270 -2494 1270 -3 0 -537 -277 -1186 -616z
m1009 80 c9 -8 16 -22 16 -30 0 -18 10 -17 34 1 30 23 74 18 102 -10 31 -31
26 -57 -22 -103 -37 -35 -43 -52 -18 -52 8 0 24 -5 35 -11 29 -15 9 -35 -51
-53 -42 -13 -54 -12 -104 2 -43 13 -55 21 -50 32 20 46 17 59 -16 62 -31 3
-31 3 -34 66 -2 63 -2 64 33 88 42 28 54 30 75 8z m391 -73 c136 -43 182 -70
265 -158 l75 -78 -33 -3 c-99 -10 -260 42 -334 107 -39 34 -78 104 -78 139 0
27 -4 27 105 -7z m595 -217 c108 -43 150 -90 150 -171 0 -29 -3 -53 -7 -53
-19 0 -130 64 -170 96 -45 37 -106 120 -118 161 l-6 22 53 -18 c29 -10 73 -27
98 -37z m-1536 10 c9 -8 16 -22 16 -30 0 -18 15 -18 45 2 54 36 136 -12 121
-71 -4 -14 -24 -42 -46 -63 -22 -20 -40 -40 -40 -43 0 -4 12 -9 28 -12 73 -16
64 -44 -22 -71 -50 -16 -58 -16 -101 -2 -25 9 -52 16 -60 16 -17 0 -20 16 -5
25 6 3 10 19 10 35 0 25 -4 29 -31 32 l-32 3 -1 68 c-2 71 6 86 59 115 28 16
41 15 59 -4z m2013 -200 c29 -18 65 -52 80 -75 24 -37 28 -54 32 -132 l3 -89
-43 23 c-119 67 -219 201 -253 341 l-6 27 67 -31 c38 -17 91 -46 120 -64z
m-513 -9 c44 -8 115 -26 158 -41 76 -27 78 -28 60 -47 -9 -11 -39 -30 -67 -43
-102 -48 -239 -25 -402 68 -85 49 -84 51 42 67 100 12 121 12 209 -4z m-2112
-132 c10 -9 18 -21 18 -27 1 -32 17 -37 51 -17 85 52 182 -4 165 -95 -6 -27
-22 -51 -62 -89 l-54 -53 44 -11 c46 -11 72 -33 61 -51 -10 -16 -65 -42 -119
-56 -43 -11 -54 -11 -98 7 -27 10 -62 19 -78 19 l-30 0 20 37 c11 21 20 48 20
60 0 19 -5 23 -34 23 -55 0 -66 8 -55 37 12 32 12 85 -1 119 -9 23 -7 31 16
55 28 29 79 58 103 59 8 0 23 -7 33 -17z m2978 -53 c158 -83 199 -140 200
-279 l0 -83 -40 24 c-66 39 -156 135 -193 207 -41 77 -71 171 -55 171 5 0 45
-18 88 -40z m-378 -65 c34 -9 80 -27 103 -40 22 -12 46 -20 54 -18 31 12 2
-24 -42 -51 -66 -40 -167 -47 -264 -18 -64 20 -238 110 -229 119 2 3 40 11 83
18 91 17 207 12 295 -10z m748 -125 c158 -83 210 -155 210 -292 0 -49 -4 -78
-11 -78 -37 0 -166 122 -212 200 -43 75 -90 210 -72 210 4 0 42 -18 85 -40z
m-1937 -205 l68 -205 225 0 c137 0 223 -4 219 -9 -3 -5 -81 -62 -173 -127 -92
-64 -170 -120 -174 -124 -5 -3 23 -99 61 -213 38 -114 67 -207 64 -207 -3 0
-80 53 -172 118 -207 147 -189 137 -209 119 -37 -33 -345 -248 -349 -243 -2 2
27 97 65 211 l69 206 -51 38 c-28 20 -112 80 -186 132 l-134 94 230 3 231 2
68 205 c38 113 71 205 74 205 4 0 37 -92 74 -205z m1537 101 c67 -14 163 -48
190 -66 37 -25 -96 -90 -184 -90 -50 0 -124 19 -191 49 -60 26 -155 83 -155
92 0 10 123 26 205 27 39 1 99 -5 135 -12z m-3671 -42 c12 -15 21 -32 21 -38
0 -6 4 -17 9 -25 8 -12 15 -9 41 12 46 39 107 38 155 -4 31 -27 35 -37 35 -79
0 -55 -32 -106 -95 -155 l-39 -29 41 -12 c123 -36 108 -84 -39 -130 -57 -17
-59 -17 -125 3 -38 12 -80 24 -95 27 l-28 6 20 33 c11 17 20 47 20 65 0 30 -2
32 -36 32 -51 0 -77 16 -64 40 13 25 13 126 -1 152 -9 17 -5 26 27 59 39 40
87 68 116 69 9 0 26 -12 37 -26z m4448 -48 c155 -82 207 -156 208 -293 0 -45
-3 -84 -7 -88 -10 -11 -90 49 -140 104 -67 74 -148 243 -148 309 0 16 -5 18
87 -32z m-453 -126 c73 -11 256 -68 256 -80 0 -12 -72 -56 -114 -70 -59 -19
-178 -8 -252 23 -75 32 -187 97 -180 104 6 6 158 31 196 32 14 0 56 -4 94 -9z
m829 -108 c148 -95 187 -154 195 -289 2 -46 1 -83 -2 -83 -17 0 -97 63 -138
109 -67 74 -148 243 -148 308 0 16 -4 18 93 -45z m-438 -87 c91 -19 223 -64
232 -78 10 -17 -62 -73 -113 -87 -58 -17 -136 -8 -213 23 -65 26 -221 117
-221 129 0 9 113 25 185 27 33 0 91 -6 130 -14z m-5132 -15 c14 -11 29 -35 32
-53 11 -49 15 -51 44 -23 36 34 81 47 123 35 126 -36 130 -176 7 -282 -27 -23
-49 -44 -49 -47 0 -3 19 -11 43 -17 61 -17 95 -46 81 -70 -15 -25 -99 -70
-156 -83 -42 -10 -55 -9 -122 14 -41 14 -86 26 -100 26 -14 0 -26 1 -26 3 0 1
11 24 25 51 34 68 33 96 -4 96 -15 0 -43 5 -60 11 -29 10 -32 14 -24 38 10 33
10 126 0 171 -8 32 -5 38 35 79 40 40 87 70 114 71 6 0 23 -9 37 -20z m6078
-279 c20 -43 39 -181 25 -181 -21 0 -101 58 -141 102 -54 61 -85 149 -85 246
l0 66 90 -95 c50 -52 99 -114 111 -138z m-438 30 c37 -12 67 -26 67 -31 0 -4
-21 -27 -46 -49 -78 -68 -186 -88 -309 -56 -103 27 -272 114 -224 115 8 1 64
12 124 25 138 31 283 29 388 -4z m-1477 -159 c101 -250 124 -494 64 -694 l-20
-66 -39 5 c-48 7 -103 -18 -128 -57 l-18 -28 -40 27 c-50 33 -84 112 -91 209
l-5 67 30 -62 c16 -35 35 -63 42 -63 6 0 9 7 6 18 -4 9 -18 50 -32 90 -23 65
-24 77 -14 113 l13 40 19 -53 c22 -61 46 -93 59 -80 6 6 1 23 -11 43 -28 47
-45 128 -36 175 7 38 8 39 18 14 37 -85 51 -110 63 -110 19 0 18 14 -6 52 -27
45 -44 128 -36 173 8 43 18 37 34 -22 13 -45 46 -92 57 -81 4 4 -6 37 -21 75
-34 83 -36 140 -10 287 l20 108 23 -46 c13 -26 40 -86 59 -134z m-2599 -103
c17 -83 18 -103 7 -157 -7 -34 -23 -80 -35 -102 -24 -42 -19 -65 7 -39 8 9 25
42 38 73 l24 58 11 -34 c13 -39 -6 -130 -39 -185 -12 -21 -15 -35 -9 -39 16
-9 27 6 54 72 l24 59 11 -30 c14 -36 1 -105 -32 -173 -11 -24 -17 -46 -13 -50
10 -11 43 35 56 79 15 49 26 50 35 3 7 -39 -16 -131 -42 -169 -18 -25 -18 -35
0 -35 14 0 56 75 56 100 0 11 3 11 12 2 9 -9 9 -26 0 -74 -16 -85 -54 -158
-98 -186 -20 -12 -37 -21 -38 -20 -41 67 -87 94 -147 84 l-38 -6 -21 66 c-69
224 -36 464 106 773 44 97 37 103 71 -70z m4394 67 c36 -8 83 -21 104 -30 l38
-16 -29 -31 c-94 -99 -239 -118 -408 -55 -71 27 -156 73 -156 85 0 13 251 59
320 60 36 0 95 -6 131 -13z m496 -14 c130 -67 195 -230 148 -371 -26 -78 -108
-162 -181 -185 -21 -6 -21 -5 -10 66 9 55 20 84 44 117 100 138 -53 302 -211
227 -79 -38 -110 -136 -65 -209 22 -35 23 -43 15 -107 -6 -39 -13 -70 -17 -70
-5 0 -31 25 -59 56 -108 117 -110 287 -5 403 72 80 124 102 229 97 47 -2 84
-10 112 -24z m-7220 -108 c177 -85 217 -335 77 -482 -24 -25 -46 -43 -49 -41
-2 3 -11 36 -19 73 -13 64 -13 71 5 100 39 64 16 148 -54 200 -22 16 -43 21
-92 21 -49 0 -70 -5 -92 -21 -44 -33 -73 -82 -73 -126 0 -45 11 -71 50 -113
20 -22 31 -49 40 -98 7 -37 11 -70 8 -72 -2 -2 -22 4 -44 14 -151 68 -218 253
-146 406 73 153 238 212 389 139z m7137 -259 c14 -13 26 -28 26 -33 0 -13 -89
-593 -95 -619 -6 -26 -52 -53 -88 -53 -13 0 -37 12 -52 27 -21 22 -26 34 -22
59 3 17 25 161 48 319 l44 288 30 18 c41 26 77 24 109 -6z m-7206 -12 c17 -15
32 -73 82 -331 58 -303 60 -314 43 -337 -29 -39 -68 -51 -108 -32 -18 9 -36
24 -39 34 -3 10 -30 149 -61 308 -31 160 -58 295 -60 302 -2 7 10 26 26 43 35
35 85 40 117 13z m5632 -199 c145 -79 274 -312 361 -652 22 -85 38 -159 37
-163 -2 -5 -33 31 -70 78 l-68 87 0 74 c0 54 -3 73 -12 70 -8 -3 -14 -26 -16
-57 l-3 -53 -25 23 c-21 20 -24 31 -24 102 0 58 -3 78 -12 75 -8 -3 -15 -29
-18 -63 l-5 -59 -30 26 c-28 25 -30 31 -29 92 1 81 -20 92 -31 16 -8 -55 -15
-60 -46 -29 -17 17 -20 30 -17 82 2 38 -1 62 -8 64 -14 5 -24 -29 -24 -80 0
-35 -2 -38 -22 -31 -33 10 -33 8 -37 95 -3 78 -15 102 -27 54 -3 -13 -4 -47
-2 -75 3 -53 -4 -60 -37 -36 -15 11 -20 30 -23 105 -4 73 -7 91 -20 91 -12 0
-14 -15 -10 -95 5 -85 3 -96 -11 -93 -24 4 -53 102 -55 182 -1 45 -6 71 -14
74 -18 6 -16 -132 3 -194 8 -27 15 -50 15 -51 0 -2 -11 -3 -25 -3 -34 0 -47
35 -49 133 -1 54 -5 77 -13 77 -20 0 -21 -109 -3 -177 8 -31 7 -33 -19 -33
-26 0 -29 4 -34 45 -4 24 -4 58 -1 75 5 23 3 30 -10 30 -13 0 -16 -12 -16 -75
0 -54 -4 -75 -12 -75 -30 1 -45 27 -51 86 l-6 61 67 65 c133 127 222 171 333
165 49 -3 80 -12 119 -33z m-1160 -11 c36 -18 95 -57 133 -88 76 -63 82 -82
42 -141 l-25 -37 -1 34 c-1 47 -12 82 -27 87 -8 2 -10 -17 -5 -77 6 -78 5 -81
-16 -81 -19 0 -21 5 -21 68 0 83 -15 143 -35 136 -10 -4 -11 -12 -4 -33 6 -16
9 -61 7 -101 -3 -63 -6 -74 -24 -80 -20 -8 -21 -6 -16 88 4 93 -6 152 -26 152
-5 0 -7 -42 -5 -92 6 -100 -5 -161 -28 -166 -11 -2 -14 11 -14 60 0 77 -11
118 -30 118 -11 0 -13 -7 -7 -32 4 -18 7 -61 7 -96 0 -52 -4 -66 -20 -78 -19
-14 -20 -13 -27 50 -6 67 -13 86 -28 86 -5 0 -7 -34 -3 -80 4 -57 2 -84 -7
-95 -20 -24 -29 -18 -35 23 -11 61 -16 72 -32 72 -11 0 -14 -6 -9 -22 4 -13 9
-43 12 -68 5 -39 3 -48 -20 -69 l-26 -24 0 25 c0 34 -20 89 -30 83 -5 -3 -6
-36 -3 -73 5 -57 3 -71 -15 -92 l-20 -24 -12 57 c-7 36 -16 57 -23 54 -7 -2
-11 -13 -10 -23 16 -123 16 -129 -6 -154 l-20 -25 -1 27 c0 39 -19 83 -30 72
-6 -6 -5 -33 2 -71 l11 -61 -49 -97 c-58 -113 -62 -106 -44 75 24 244 83 465
156 587 46 75 68 99 129 135 45 26 58 29 120 26 55 -3 85 -10 135 -35z m280
-161 c0 -2 -10 -2 -22 0 -21 3 -23 9 -26 63 l-2 60 25 -60 c14 -33 25 -61 25
-63z m-2831 57 c71 -32 186 -121 225 -172 21 -28 23 -39 18 -87 -5 -55 -21
-79 -52 -80 -12 0 -14 13 -12 75 3 62 1 75 -12 75 -12 0 -16 -15 -18 -72 -3
-72 -4 -73 -31 -76 -26 -3 -27 -2 -20 25 13 46 10 176 -4 180 -10 4 -13 -13
-13 -64 0 -37 -5 -85 -11 -105 -8 -33 -14 -38 -38 -38 l-29 0 16 43 c21 58 22
190 2 195 -12 2 -14 -9 -12 -60 3 -70 -23 -165 -51 -182 -25 -16 -28 -4 -17
55 13 64 4 129 -16 129 -10 0 -12 -10 -8 -44 9 -62 -13 -145 -40 -155 -20 -8
-21 -5 -26 62 -3 44 -10 72 -17 75 -10 3 -13 -16 -13 -72 0 -66 -3 -77 -22
-90 -33 -23 -38 -20 -38 22 0 51 -10 81 -23 76 -8 -3 -11 -26 -9 -66 4 -55 1
-63 -20 -79 -29 -23 -48 -24 -46 -1 4 46 -3 82 -15 82 -10 0 -13 -17 -13 -63
1 -59 -1 -66 -29 -90 l-30 -25 -5 55 c-8 86 -30 82 -30 -6 0 -60 -3 -74 -25
-98 l-24 -28 -1 37 c0 44 -8 68 -24 68 -7 0 -11 -25 -11 -74 0 -70 -2 -75 -35
-112 -19 -21 -51 -60 -69 -86 -19 -27 -36 -46 -38 -44 -7 6 65 275 97 363 68
184 166 347 248 411 110 87 214 99 341 41z m1127 14 c171 -58 304 -379 329
-793 l6 -105 -51 90 c-47 83 -50 94 -46 140 3 28 8 60 12 73 5 16 2 22 -10 22
-11 0 -18 -13 -22 -40 -4 -22 -10 -43 -15 -46 -25 -15 -39 98 -19 150 6 17 6
27 -1 32 -15 9 -20 0 -33 -57 l-12 -52 -24 32 c-21 31 -22 38 -13 90 6 31 8
60 5 65 -8 15 -32 -26 -32 -55 0 -35 -10 -41 -34 -23 -17 12 -18 22 -13 84 4
42 2 70 -4 70 -13 0 -29 -45 -29 -81 0 -32 -6 -35 -34 -14 -16 12 -18 23 -14
77 3 35 7 69 9 77 2 7 -1 16 -8 18 -14 5 -22 -21 -32 -98 -6 -47 -7 -49 -25
-36 -15 11 -20 27 -20 73 -1 33 3 76 7 97 6 30 5 37 -7 37 -18 0 -30 -52 -29
-128 0 -43 -3 -52 -15 -50 -24 5 -35 65 -29 166 4 67 2 92 -6 89 -20 -6 -29
-70 -24 -159 6 -86 5 -87 -16 -79 -21 8 -22 15 -21 110 0 65 -4 100 -10 98
-16 -5 -24 -45 -25 -124 -1 -68 -3 -73 -22 -73 -21 0 -21 4 -17 75 3 42 1 78
-3 81 -13 8 -29 -41 -29 -89 l-1 -42 -19 37 c-11 20 -24 39 -29 42 -36 23 60
122 178 185 98 52 167 61 247 34z m1977 -74 c30 -14 57 -59 57 -97 0 -26 -4
-31 -37 -37 -25 -4 -50 -20 -75 -46 l-37 -39 -20 26 c-76 96 8 240 112 193z
m-2438 -65 c-5 -35 -10 -44 -26 -44 -23 0 -23 -1 -5 41 7 19 16 43 21 54 12
31 18 1 10 -51z m2233 2 c26 -27 35 -100 13 -90 -54 23 -95 16 -140 -22 l-31
-26 0 42 c0 54 24 98 61 114 39 16 72 10 97 -18z m2152 -3 c0 -10 -6 -57 -14
-106 -10 -62 -21 -95 -38 -115 -38 -45 -55 -98 -89 -267 -22 -114 -30 -176
-26 -217 4 -42 -1 -78 -19 -139 -13 -45 -26 -84 -29 -87 -20 -20 -79 90 -90
168 -8 57 93 577 123 636 25 48 74 95 127 122 49 26 55 26 55 5z m286 -26 c59
-41 104 -119 104 -181 0 -76 -99 -546 -129 -611 -34 -73 -79 -127 -135 -160
-40 -23 -121 -47 -129 -38 -3 2 6 38 19 80 16 53 33 86 55 107 18 17 40 49 50
71 24 55 83 438 74 490 -6 42 23 275 36 275 4 0 29 -15 55 -33z m-7015 1 c50
-14 112 -67 133 -113 10 -20 40 -152 68 -293 57 -293 60 -375 19 -467 -20 -46
-66 -105 -81 -105 -4 0 -17 34 -29 76 -18 60 -21 90 -16 139 6 53 0 89 -40
256 -53 224 -59 242 -97 285 -21 24 -33 54 -48 129 -11 53 -20 99 -20 101 0 9
75 3 111 -8z m2121 -37 c30 -27 33 -34 33 -90 0 -49 -4 -65 -22 -83 l-23 -22
-32 31 c-39 37 -69 53 -97 53 -17 0 -21 6 -21 36 0 28 8 44 34 70 44 44 83 45
128 5z m232 -50 c20 -21 30 -43 33 -75 3 -25 3 -46 0 -46 -3 0 -23 11 -43 25
-39 26 -91 33 -125 15 -17 -10 -19 -7 -19 25 0 81 97 116 154 56z m-2654 -71
c8 -39 20 -71 31 -80 17 -14 18 -18 4 -64 -20 -67 -19 -84 15 -264 39 -198 45
-216 87 -262 24 -27 41 -63 59 -125 14 -47 24 -89 21 -92 -12 -11 -106 29
-144 62 -70 60 -89 112 -147 413 -64 329 -62 364 20 461 15 18 30 29 34 24 4
-4 13 -37 20 -73z m5179 54 c98 -82 22 -252 -93 -208 -9 3 -16 12 -16 18 0 7
-10 33 -23 58 -28 55 -21 94 24 132 39 33 69 33 108 0z m-306 5 c20 -9 54 -48
45 -53 -2 -1 -20 -9 -41 -19 -39 -18 -74 -63 -84 -109 -7 -34 -18 -35 -37 -5
-25 39 -28 81 -10 126 24 60 74 84 127 60z m-2552 -105 c17 -9 37 -30 45 -50
14 -33 13 -38 -16 -99 -34 -72 -59 -86 -110 -65 -79 33 -90 166 -17 210 39 24
59 25 98 4z m315 -28 c30 -30 34 -40 34 -84 0 -39 -6 -57 -24 -79 l-24 -28
-12 44 c-14 53 -57 99 -99 107 -39 8 -39 16 0 48 43 37 83 34 125 -8z m2342
18 c88 -62 52 -224 -50 -224 -16 0 -41 12 -60 29 -31 27 -33 34 -33 91 0 57 2
64 33 91 36 33 76 37 110 13z m-160 -199 c24 -40 24 -40 7 -95 l-17 -54 -23
59 c-32 85 -36 95 -44 95 -18 0 -17 -14 5 -68 14 -34 24 -78 24 -109 0 -87
-22 -115 -34 -42 -7 47 -42 119 -56 119 -14 0 -13 -8 9 -65 27 -70 35 -138 21
-164 -13 -25 -30 -19 -30 10 0 32 -41 119 -56 119 -18 0 -18 1 5 -51 31 -70
37 -142 15 -173 -25 -34 -30 -33 -38 12 -9 56 -44 128 -57 115 -7 -7 -4 -26 9
-59 11 -27 22 -68 26 -91 5 -35 2 -46 -18 -69 l-23 -28 -22 67 c-13 37 -27 69
-32 72 -23 15 -25 -10 -3 -62 32 -79 31 -115 -5 -155 l-29 -32 -7 34 c-12 56
-47 131 -59 127 -13 -5 -13 -3 14 -77 31 -86 27 -120 -20 -171 l-39 -44 -1 38
c0 55 -20 128 -37 134 -22 8 -23 0 -8 -42 8 -22 14 -70 15 -108 0 -61 -3 -72
-37 -124 l-38 -56 -13 69 c-32 172 -30 426 3 554 55 212 202 361 418 420 l62
17 45 -40 c25 -23 56 -59 68 -82z m491 91 c172 -70 291 -216 343 -422 20 -79
22 -112 21 -289 0 -118 -7 -235 -15 -285 l-14 -85 -37 58 c-33 52 -37 64 -37
126 0 37 6 89 14 114 13 44 12 57 -5 57 -12 0 -32 -70 -38 -134 l-6 -60 -39
57 -39 56 13 63 c6 34 18 75 26 90 18 34 18 48 0 48 -15 0 -44 -68 -53 -124
-3 -20 -9 -36 -14 -36 -5 0 -19 16 -32 35 -21 31 -23 42 -16 80 4 24 15 60 24
80 19 46 19 55 0 55 -9 0 -23 -27 -38 -76 l-24 -76 -21 33 c-17 30 -19 41 -11
90 5 31 16 72 24 92 17 42 19 57 5 57 -15 0 -39 -53 -54 -117 l-13 -58 -22 35
c-24 40 -22 90 10 175 23 60 23 65 5 65 -14 0 -56 -106 -56 -143 0 -17 -2 -18
-16 -6 -23 19 -14 128 15 193 17 39 19 51 9 57 -16 10 -33 -21 -53 -97 -18
-70 -22 -74 -35 -38 -13 33 0 128 26 189 10 25 12 41 6 47 -13 13 -31 -20 -53
-97 l-16 -60 -23 74 c-18 57 -21 82 -14 110 9 35 9 35 61 32 45 -2 55 1 85 28
18 17 36 31 41 31 4 0 34 -11 66 -24z m-2776 -7 c37 -28 53 -86 37 -133 -30
-93 -140 -103 -185 -16 -54 104 61 218 148 149z m253 -90 c218 -66 357 -211
411 -425 13 -51 17 -112 18 -239 0 -159 -17 -329 -35 -340 -4 -2 -24 19 -44
49 -41 60 -47 116 -21 202 18 60 18 64 2 64 -15 0 -34 -53 -44 -125 l-6 -48
-38 44 c-50 58 -49 96 6 222 5 12 3 17 -8 17 -16 0 -57 -86 -57 -119 0 -32
-15 -32 -45 -1 -25 26 -27 34 -22 75 4 25 16 63 27 84 14 29 17 42 8 47 -15
10 -32 -16 -53 -83 l-18 -57 -24 29 c-28 32 -26 69 9 163 20 52 19 70 -1 58
-13 -8 -51 -111 -51 -138 0 -21 0 -21 -25 2 -33 31 -33 85 0 164 13 33 22 62
20 64 -15 15 -37 -17 -56 -79 -20 -67 -23 -71 -36 -53 -19 25 -11 107 16 170
15 34 18 51 11 58 -15 15 -25 -4 -51 -87 -20 -65 -22 -67 -36 -47 -19 27 -11
103 19 173 16 35 18 51 10 59 -9 9 -17 0 -32 -34 -11 -26 -23 -60 -26 -77 -8
-39 -18 -33 -38 24 -15 45 -15 46 16 95 17 27 39 52 50 56 10 3 26 16 34 30
20 29 24 29 110 3z m-605 -6 c23 -27 78 -45 120 -38 37 6 38 6 45 -30 6 -35
-3 -84 -28 -148 -11 -28 -12 -26 -35 47 -15 49 -29 76 -38 76 -19 0 -19 -5 6
-70 23 -62 30 -163 12 -181 -9 -9 -14 -1 -23 32 -17 68 -42 119 -58 119 -10 0
-12 -5 -7 -17 43 -102 55 -195 31 -228 -12 -17 -14 -15 -20 21 -10 51 -42 124
-55 124 -15 0 -14 -14 3 -55 8 -19 20 -61 26 -92 9 -52 8 -60 -12 -89 l-22
-32 -22 75 c-22 78 -35 100 -52 89 -7 -4 -3 -23 9 -52 30 -66 36 -144 14 -177
-19 -29 -35 -27 -35 4 0 24 -40 119 -50 119 -17 0 -17 -15 0 -56 11 -24 22
-65 25 -92 5 -42 2 -51 -23 -81 l-30 -35 -7 35 c-15 67 -46 138 -59 133 -9 -4
-7 -21 11 -72 33 -97 30 -129 -14 -187 l-38 -48 -6 70 c-7 72 -30 135 -43 115
-4 -6 -2 -31 5 -54 6 -24 12 -72 13 -108 1 -58 -3 -71 -33 -118 -18 -28 -37
-52 -41 -52 -16 0 -35 211 -34 380 1 145 5 189 23 255 51 193 148 319 302 394
92 45 120 49 140 24z m2844 -225 c-7 -204 6 -667 25 -918 68 -887 281 -1595
620 -2059 l47 -64 -63 -249 c-34 -137 -65 -252 -68 -255 -3 -3 -33 52 -67 123
-353 746 -530 1497 -599 2536 -10 146 -29 789 -30 976 l0 82 33 0 c17 0 43 7
57 14 53 30 52 32 45 -186z m-2549 72 l37 0 -6 -392 c-7 -420 -16 -610 -47
-943 -61 -665 -192 -1255 -395 -1770 -105 -268 -254 -582 -263 -556 -2 8 -32
123 -66 257 l-62 243 59 78 c325 432 536 1100 612 1941 23 253 38 685 33 934
-3 126 -3 230 0 233 2 2 17 -2 33 -10 15 -8 45 -15 65 -15z m-3113 -95 c118
-31 199 -91 243 -181 20 -41 25 -63 21 -91 -16 -97 -181 -181 -281 -144 -23 9
-25 8 -31 -30 -16 -96 21 -357 72 -508 42 -124 132 -303 262 -519 154 -257
222 -393 274 -546 l40 -121 8 -241 c8 -258 25 -408 64 -599 64 -309 186 -618
355 -898 84 -140 99 -175 107 -249 8 -77 -15 -136 -70 -183 -152 -130 -447
-52 -447 118 0 42 23 109 50 147 11 15 20 30 20 32 0 1 -69 3 -153 3 -129 0
-159 3 -195 19 -74 34 -86 88 -41 178 11 21 18 38 17 38 -2 0 -30 -9 -63 -19
-135 -43 -254 -39 -327 9 -48 32 -73 74 -83 142 -7 44 -5 47 30 74 26 20 51
29 88 31 46 4 63 -1 145 -41 91 -45 142 -56 172 -36 23 14 -84 111 -172 154
-63 32 -79 36 -152 36 -211 1 -388 88 -424 208 -16 51 -9 91 24 150 l25 42 67
0 c89 0 128 -25 206 -131 86 -117 159 -159 304 -174 60 -7 63 -6 54 11 -25 47
-166 176 -259 238 -124 82 -286 156 -343 156 -50 0 -152 33 -192 63 -94 70
-100 197 -13 284 38 39 47 43 92 43 86 0 191 -86 216 -179 6 -24 19 -46 27
-48 58 -19 158 -74 279 -153 78 -51 143 -91 146 -89 9 10 -192 226 -372 400
-105 101 -114 107 -184 128 -108 33 -249 104 -317 161 -110 91 -137 190 -77
282 50 75 144 87 246 31 71 -38 182 -160 300 -329 82 -118 126 -168 242 -279
93 -89 143 -131 145 -121 6 26 -38 168 -69 227 -46 85 -147 206 -256 305 -54
49 -147 134 -208 189 -60 55 -137 121 -170 147 -107 81 -229 219 -272 305 -32
65 -39 89 -41 154 -3 57 0 84 13 110 33 65 65 97 126 128 50 25 75 31 127 31
92 0 137 -17 193 -71 35 -34 52 -60 63 -99 25 -83 22 -97 -24 -120 -46 -24
-60 -45 -60 -96 0 -70 55 -146 276 -380 260 -277 374 -441 399 -577 6 -30 10
-35 21 -26 25 20 17 121 -16 221 -54 161 -154 346 -420 778 -267 435 -298 498
-341 694 -28 129 -36 339 -15 435 59 276 288 439 529 376z m7669 -42 c10 -9
20 -24 23 -34 6 -17 -155 -581 -176 -621 -5 -10 -27 -22 -48 -29 -46 -14 -74
-2 -95 39 -14 27 -9 47 75 333 49 167 89 305 89 307 0 2 15 9 33 17 36 16 73
12 99 -12z m-6728 -17 c32 -13 33 -14 125 -324 91 -304 93 -310 76 -336 -21
-32 -45 -46 -78 -46 -53 0 -63 21 -158 338 l-92 304 20 26 c16 22 56 51 71 52
1 0 17 -6 36 -14z m7920 -41 c107 -32 203 -121 252 -231 95 -215 61 -583 -81
-859 -34 -66 -120 -219 -192 -340 -346 -585 -468 -861 -434 -976 15 -48 26
-44 35 13 16 99 116 260 275 441 47 54 129 148 181 208 53 60 110 133 129 163
60 99 51 170 -26 202 -34 15 -35 16 -29 57 10 62 53 144 92 173 70 54 142 65
235 38 71 -21 149 -98 168 -167 40 -141 -49 -320 -246 -494 -220 -194 -492
-461 -553 -544 -57 -76 -103 -169 -125 -254 -28 -110 -25 -109 116 30 105 104
150 158 224 270 181 271 278 357 399 357 59 0 93 -22 124 -82 27 -54 28 -92 2
-148 -44 -98 -206 -210 -377 -262 -70 -21 -73 -23 -215 -168 -120 -123 -224
-240 -298 -336 -20 -26 -17 -24 136 80 66 46 154 99 195 119 70 33 74 37 87
81 18 63 102 148 163 164 35 10 49 9 75 -3 42 -21 80 -71 94 -128 31 -124 -65
-228 -226 -245 -78 -8 -251 -91 -361 -173 -81 -61 -213 -195 -213 -216 0 -21
140 2 199 32 53 27 85 60 170 178 39 55 95 84 163 85 44 0 50 -3 72 -37 53
-82 46 -158 -20 -232 -74 -82 -180 -122 -328 -122 -69 0 -90 -5 -144 -30 -80
-39 -194 -144 -172 -159 28 -19 69 -10 161 35 117 57 161 58 217 6 38 -37 27
-128 -21 -179 -60 -65 -191 -82 -318 -42 -35 10 -65 18 -66 16 -2 -2 4 -19 12
-39 8 -20 15 -54 15 -75 0 -85 -79 -117 -268 -111 -62 3 -112 4 -112 3 0 -1
14 -28 30 -59 34 -64 40 -137 16 -184 -57 -108 -231 -144 -359 -74 -41 23 -58
41 -80 84 -25 47 -28 62 -24 116 5 67 20 103 142 328 231 429 345 889 345
1396 0 145 3 179 25 260 46 179 105 305 283 619 223 392 289 584 299 876 l6
142 -70 -5 c-78 -6 -126 12 -182 67 -55 55 -54 119 2 204 80 120 252 176 401
131z m-540 -392 c36 -116 47 -199 48 -343 0 -154 -14 -256 -57 -425 -71 -281
-191 -543 -383 -833 -41 -62 -76 -111 -78 -109 -3 2 127 549 401 1695 15 63
31 110 35 105 4 -4 20 -45 34 -90z m-7743 -723 c111 -432 204 -796 206 -810 7
-40 -138 188 -215 338 -127 248 -213 508 -242 726 -17 123 -8 380 15 474 10
40 22 69 26 65 4 -4 98 -361 210 -793z m6789 679 c-17 -57 -43 -122 -58 -144
-42 -60 -49 -81 -82 -251 -32 -166 -36 -226 -20 -268 7 -19 4 -50 -12 -116
-11 -49 -24 -90 -29 -90 -4 0 -24 19 -43 42 -38 43 -66 118 -66 172 0 45 106
581 120 606 22 41 84 101 124 122 40 21 88 37 94 33 2 -2 -11 -49 -28 -106z
m-6106 62 c80 -42 95 -75 171 -382 62 -249 67 -276 62 -347 -3 -48 -13 -95
-26 -123 -22 -47 -77 -119 -91 -119 -4 0 -17 36 -29 79 -18 67 -20 87 -11 127
6 27 8 66 5 89 -12 74 -116 410 -139 445 -21 33 -86 226 -86 256 0 21 86 6
144 -25z m6439 -46 c68 -77 68 -114 7 -420 -29 -143 -60 -281 -69 -306 -25
-65 -76 -135 -123 -170 -41 -29 -113 -57 -124 -47 -12 13 38 172 65 207 16 20
34 52 40 72 23 71 71 422 65 469 -4 34 2 70 25 149 17 57 31 106 31 108 0 7
64 -40 83 -62z m-6760 -110 c24 -83 25 -95 15 -156 -11 -63 -10 -73 31 -235
49 -191 58 -217 93 -259 29 -35 83 -215 65 -215 -30 0 -115 51 -147 86 -50 55
-61 88 -136 379 -70 274 -73 311 -40 389 20 47 77 119 85 110 4 -5 20 -49 34
-99z m6421 -547 c14 -6 32 -21 40 -33 13 -20 8 -49 -55 -301 -39 -153 -74
-295 -79 -315 -20 -74 -130 -82 -158 -12 -10 24 -1 72 66 333 l77 305 35 17
c41 21 42 21 74 6z m-6111 -9 c21 -10 31 -38 87 -242 35 -128 73 -270 86 -316
l23 -84 -34 -34 c-39 -39 -73 -43 -109 -10 -20 18 -39 76 -106 320 -45 165
-78 307 -75 317 9 27 53 60 81 60 13 0 34 -5 47 -11z m5871 -426 c-28 -121
-49 -180 -79 -219 -18 -24 -38 -58 -44 -76 -17 -53 -50 -369 -44 -420 3 -28 2
-48 -4 -48 -5 0 -15 -30 -22 -67 -21 -112 -23 -114 -59 -64 -56 77 -58 115
-22 429 35 311 44 346 118 413 44 41 113 78 145 79 14 0 16 -5 11 -27z m-5573
-14 c49 -25 87 -62 105 -105 7 -17 41 -147 75 -289 54 -229 61 -267 57 -335
-3 -52 -12 -92 -30 -130 -28 -62 -63 -108 -73 -98 -15 15 -47 167 -49 238 -4
90 -99 429 -138 488 -21 32 -78 216 -78 252 0 18 79 6 131 -21z m5872 -48 c63
-69 64 -89 27 -400 -31 -266 -48 -347 -86 -408 -47 -76 -127 -133 -207 -148
-43 -8 -44 -4 -22 89 8 36 21 64 32 70 37 20 74 70 87 120 15 53 36 302 36
427 0 62 10 115 51 272 12 44 25 41 82 -22z m-6185 -112 c17 -61 20 -93 15
-160 -5 -75 -1 -102 32 -244 42 -176 62 -225 111 -271 24 -23 37 -49 49 -95 9
-35 18 -72 21 -81 14 -47 -122 7 -177 70 -48 54 -62 94 -129 372 -79 325 -78
382 13 478 36 38 36 37 65 -69z m3147 -604 c12 -44 19 -130 26 -315 9 -269 14
-320 33 -320 6 0 22 37 35 83 54 181 115 299 180 343 19 13 40 24 45 24 20 0
-3 -166 -38 -278 -35 -110 -56 -222 -42 -222 22 0 92 47 131 87 51 54 51 56
35 -77 -23 -185 -81 -355 -175 -514 -48 -82 -80 -128 -169 -240 -41 -52 -55
-135 -63 -364 l-6 -193 -51 3 -51 3 -7 160 c-3 88 -13 205 -22 260 -16 95 -18
101 -54 129 -54 43 -148 141 -193 202 -117 159 -192 372 -214 614 l-7 75 65
-63 c55 -52 116 -92 142 -92 11 0 -7 126 -41 278 -18 85 -37 183 -40 219 l-7
66 32 -24 c55 -40 106 -130 150 -261 42 -125 87 -219 107 -225 18 -6 32 98 44
302 13 250 32 333 92 417 l21 30 13 -23 c7 -13 20 -51 29 -84z m3426 -237 c-6
-150 -16 -327 -22 -393 -24 -288 -84 -525 -177 -698 -46 -86 -161 -257 -173
-257 -3 0 -3 19 1 43 10 65 374 1586 379 1581 2 -2 -2 -126 -8 -276z m-706
237 c14 -13 25 -29 25 -35 0 -6 -29 -149 -65 -318 -48 -227 -70 -310 -83 -320
-44 -33 -102 -26 -129 14 -16 25 -14 37 46 327 34 166 64 309 67 318 12 42
102 52 139 14z m-5506 -19 c13 -13 160 -589 161 -628 0 -9 -11 -29 -24 -44
-28 -33 -84 -38 -114 -10 -15 12 -41 102 -98 328 l-77 311 37 35 c32 29 43 33
69 28 18 -4 38 -13 46 -20z m-495 -841 c92 -357 169 -656 171 -663 21 -62
-108 133 -168 253 -99 199 -143 399 -166 745 -18 278 -21 345 -12 330 5 -8 84
-307 175 -665z m731 424 c59 -15 129 -77 149 -132 9 -23 41 -152 72 -287 49
-214 55 -255 52 -325 -3 -54 -12 -96 -27 -130 -21 -47 -57 -95 -71 -95 -8 0
-46 184 -54 260 -10 91 -109 423 -140 469 -24 34 -75 196 -76 239 0 15 37 16
95 1z m4996 -91 c-16 -74 -25 -95 -59 -134 -51 -57 -66 -103 -91 -282 -23
-160 -26 -225 -11 -269 8 -22 6 -48 -9 -112 -11 -46 -23 -86 -25 -89 -9 -9
-46 30 -73 75 -44 76 -45 120 -2 425 21 153 45 292 52 311 19 43 69 100 113
128 40 24 118 50 122 40 1 -4 -6 -46 -17 -93z m300 15 c43 -45 60 -89 60 -151
1 -85 -69 -536 -92 -597 -25 -68 -68 -127 -121 -165 -39 -29 -113 -58 -123
-49 -10 10 39 167 61 196 14 18 31 51 39 73 18 50 58 434 50 472 -4 16 0 36 8
50 9 13 20 50 27 83 23 121 29 136 48 126 9 -5 29 -22 43 -38z m-5572 -103
c25 -95 25 -92 16 -175 -6 -51 -1 -87 34 -233 22 -95 46 -183 52 -195 6 -12
31 -42 54 -67 36 -38 45 -57 59 -119 9 -41 14 -76 11 -79 -8 -9 -86 18 -126
43 -43 27 -82 75 -103 126 -8 18 -42 153 -76 299 -67 288 -69 322 -28 404 24
49 69 99 79 89 3 -5 16 -46 28 -93z m5296 -575 c14 -13 25 -32 25 -42 -1 -10
-34 -153 -74 -318 l-73 -300 -36 -20 c-44 -24 -83 -14 -108 30 -16 29 -16 34
7 130 13 55 47 195 75 311 55 230 56 232 127 233 22 1 41 -7 57 -24z m-4933
-29 c12 -9 38 -106 89 -341 l73 -328 -37 -33 c-42 -39 -60 -41 -103 -15 -30
18 -31 23 -99 327 -37 170 -70 317 -73 326 -2 10 8 30 26 48 24 23 39 30 69
30 21 0 46 -6 55 -14z m4658 -447 c-15 -59 -30 -93 -52 -118 -47 -53 -64 -102
-92 -266 -28 -163 -32 -235 -15 -282 8 -26 5 -43 -18 -104 -17 -44 -34 -74
-43 -74 -22 0 -69 84 -82 147 -11 52 -8 78 37 335 33 194 55 292 71 324 29 58
92 113 158 138 48 18 51 18 54 1 2 -10 -7 -55 -18 -101z m303 44 c88 -85 90
-115 32 -438 -26 -143 -56 -284 -67 -313 -38 -101 -127 -187 -223 -213 -20 -6
-39 -8 -41 -6 -8 7 63 177 90 216 13 20 29 52 35 71 13 42 61 401 61 455 0 54
51 265 65 265 6 0 28 -17 48 -37z m-4730 -27 c62 -18 102 -49 132 -99 35 -61
135 -524 135 -629 0 -87 -21 -156 -66 -215 -31 -41 -33 -40 -68 65 -17 50 -22
82 -18 127 3 50 -5 93 -48 255 -53 197 -68 239 -100 275 -14 16 -60 188 -60
225 0 14 39 12 93 -4z m1851 -50 c42 -18 80 -65 115 -143 33 -74 49 -94 119
-141 30 -19 56 -41 59 -49 7 -18 -23 -51 -67 -73 -57 -29 -70 -51 -75 -120 -3
-51 -10 -72 -34 -106 l-30 -43 52 5 c84 8 96 13 111 43 24 45 66 91 84 91 10
0 39 -28 66 -61 27 -34 63 -67 82 -75 47 -20 61 -18 40 5 -26 29 -45 89 -46
144 0 51 -16 74 -68 101 -16 8 -37 27 -47 42 l-18 28 35 30 c19 17 50 43 69
57 25 19 43 48 67 107 37 90 92 151 140 153 104 6 189 -25 339 -123 79 -51
111 -66 163 -76 90 -16 177 -63 244 -131 l57 -57 -53 -54 c-64 -64 -146 -105
-247 -121 -67 -11 -79 -17 -120 -57 -85 -81 -247 -138 -354 -124 l-38 4 26
-37 c30 -45 33 -104 9 -186 -20 -68 -42 -112 -110 -219 -42 -68 -55 -99 -64
-154 -6 -38 -22 -93 -36 -123 -25 -52 -126 -173 -146 -173 -21 0 -116 108
-141 161 -14 30 -31 86 -38 125 -11 60 -18 75 -59 119 -137 148 -177 360 -90
481 l29 41 -52 -14 c-65 -17 -105 -16 -192 2 -89 19 -199 73 -250 123 -36 35
-47 39 -108 46 -122 12 -231 62 -308 142 l-34 36 60 56 c77 72 149 108 255
128 68 12 101 25 165 64 213 128 344 166 439 126z m-2133 -141 c15 -66 22
-125 20 -175 -2 -57 7 -114 35 -235 39 -171 42 -181 84 -235 14 -19 41 -74 58
-122 31 -88 31 -88 9 -88 -31 1 -96 32 -135 65 -62 52 -79 97 -143 381 -65
290 -70 354 -34 424 23 45 68 99 76 91 4 -3 17 -51 30 -106z m5529 -132 c11
-25 19 -47 18 -49 -2 -1 -15 8 -30 19 -21 17 -25 28 -21 50 3 15 7 27 9 27 2
0 12 -21 24 -47z m-6000 -78 c0 -16 -18 -29 -75 -58 -42 -20 -77 -37 -80 -37
-2 0 15 18 39 40 24 22 54 60 67 85 l24 46 12 -28 c7 -15 12 -37 13 -48z
m6063 -92 c185 -124 358 -209 565 -277 48 -16 82 -33 82 -41 0 -29 -112 -391
-171 -551 -159 -436 -331 -779 -574 -1144 -676 -1015 -1649 -1643 -2714 -1750
-153 -15 -495 -12 -646 5 -638 75 -1202 320 -1735 753 -123 101 -414 389 -522
517 -387 463 -694 1008 -941 1675 -61 164 -167 494 -167 519 0 6 12 13 27 17
210 45 414 116 616 212 75 36 139 63 141 61 2 -2 31 -85 64 -184 365 -1097
987 -1893 1787 -2285 194 -95 333 -146 525 -194 216 -53 353 -69 585 -70 292
-1 515 34 784 123 937 309 1677 1128 2055 2274 30 89 68 220 86 290 18 70 36
126 39 125 3 -2 55 -36 114 -75z m-854 -189 c12 -15 21 -34 21 -43 0 -9 -53
-148 -117 -310 -125 -312 -125 -311 -192 -311 -28 0 -49 17 -70 57 -9 18 7 66
105 315 64 161 123 299 132 306 9 6 35 12 58 12 34 0 47 -5 63 -26z m-4417
-32 c8 -8 126 -327 209 -563 l33 -95 -23 -33 c-32 -44 -62 -54 -109 -36 l-37
16 -117 321 c-111 305 -116 323 -102 349 22 43 53 61 98 55 21 -2 43 -9 48
-14z m4088 -385 c-18 -45 -42 -89 -54 -97 -62 -45 -99 -89 -187 -223 -76 -115
-101 -161 -110 -205 -10 -48 -21 -66 -68 -114 -30 -32 -59 -58 -63 -58 -10 0
-28 68 -28 106 0 69 33 136 176 355 162 249 171 261 230 295 44 26 127 46 132
32 2 -5 -11 -46 -28 -91z m-5551 -227 c14 -42 121 -310 148 -369 14 -31 45
-99 69 -152 24 -53 44 -100 44 -105 0 -15 -159 -111 -236 -143 -67 -27 -134
-47 -134 -39 0 2 7 57 15 123 17 136 20 457 6 646 -5 68 -12 176 -15 239 l-6
115 51 -145 c27 -80 54 -156 58 -170z m-145 188 c18 -250 26 -403 25 -508 0
-115 0 -115 -14 -65 -47 176 -164 363 -257 411 l-28 15 20 40 c30 58 86 117
154 161 89 57 92 55 100 -54z m7663 36 c49 -34 123 -127 138 -173 4 -14 -10
-35 -55 -79 -44 -44 -72 -85 -105 -153 -25 -51 -45 -99 -45 -106 0 -7 -5 -13
-12 -13 -8 0 -9 43 -5 167 4 91 7 217 7 280 0 83 3 113 12 113 7 0 36 -16 65
-36z m-5762 -1 c17 -9 43 -27 58 -42 30 -28 273 -428 309 -508 21 -49 37 -196
24 -229 -10 -26 -139 105 -170 172 -26 56 -195 314 -232 354 -25 27 -116 259
-107 273 7 11 81 -2 118 -20z m4095 -10 c65 -74 86 -163 56 -243 -7 -19 -78
-134 -158 -255 -152 -232 -206 -293 -295 -335 -56 -26 -155 -37 -197 -21 l-29
12 49 50 c27 27 78 70 114 95 36 25 74 57 86 72 50 65 216 360 226 401 18 79
91 261 104 261 6 0 26 -17 44 -37z m1529 -360 c-1 -350 10 -520 41 -631 9 -33
8 -34 -18 -27 -44 10 -182 83 -247 130 -104 74 -102 60 -33 214 73 163 172
417 219 563 19 60 35 108 36 108 1 0 2 -161 2 -357z m-5916 173 c20 -57 37
-121 37 -142 0 -67 19 -113 106 -256 113 -187 120 -195 190 -228 33 -16 90
-56 125 -89 l64 -59 -30 -12 c-86 -34 -220 -2 -288 68 -20 20 -101 146 -180
279 -159 265 -169 293 -148 395 11 50 63 148 79 148 4 0 24 -47 45 -104z
m-1899 -20 c117 -49 236 -251 282 -476 21 -103 15 -264 -11 -328 -26 -62 -69
-95 -118 -89 -161 22 -327 340 -330 632 -2 134 17 199 69 245 39 33 59 37 108
16z m8212 -33 c43 -46 57 -120 51 -262 -6 -146 -29 -246 -86 -366 -66 -141
-154 -226 -216 -211 -20 5 -26 18 -44 93 -31 137 -44 284 -31 350 60 287 232
497 326 396z m-2415 -322 c58 -58 54 -64 -201 -307 -193 -183 -236 -219 -263
-222 -49 -4 -87 29 -87 76 -1 35 11 48 227 259 203 198 232 222 261 223 24 0
42 -8 63 -29z m-3170 -308 c247 -244 249 -247 249 -288 0 -61 -25 -88 -82 -89
l-44 -1 -252 244 c-193 187 -252 250 -252 269 0 35 28 88 53 100 60 29 64 26
328 -235z m2745 97 l28 -11 -69 -69 c-63 -63 -73 -70 -110 -70 -22 -1 -57 -7
-77 -14 -69 -25 -313 -167 -353 -207 -28 -27 -66 -48 -123 -69 -97 -35 -92
-35 -92 -12 0 36 49 119 93 157 49 43 506 301 547 309 34 6 123 -2 156 -14z
m-2480 -83 c29 -12 143 -69 255 -127 224 -116 301 -174 345 -263 14 -27 23
-51 20 -54 -10 -11 -184 42 -241 73 -93 51 -361 172 -397 179 -23 5 -59 33
-115 88 -46 45 -83 85 -83 88 0 14 76 38 120 38 25 0 68 -10 96 -22z m2688
-127 c22 -54 20 -145 -3 -195 -29 -63 -71 -94 -296 -218 -271 -149 -291 -158
-385 -164 -96 -7 -161 13 -221 66 l-43 38 69 24 c50 16 93 23 150 24 91 0 109
8 343 155 101 63 150 103 242 195 63 63 118 115 121 115 4 0 14 -18 23 -40z
m-2598 -447 c153 -77 177 -86 226 -86 31 0 70 7 88 16 31 16 37 16 109 -5 42
-12 78 -23 80 -25 3 -2 -13 -22 -35 -44 -59 -62 -123 -89 -212 -89 l-73 0
-257 131 c-141 72 -272 145 -290 163 -62 59 -106 188 -88 261 6 25 12 21 144
-105 l137 -132 171 -85z m1891 227 c44 -26 55 -83 26 -126 -5 -6 -141 -57
-303 -113 -162 -57 -298 -105 -301 -107 -4 -2 -22 7 -40 19 -43 29 -56 65 -40
105 12 28 30 36 309 135 163 58 302 106 307 106 6 1 25 -8 42 -19z m-469 -45
c28 -13 52 -28 52 -32 0 -5 -39 -22 -87 -38 -83 -27 -98 -29 -283 -31 -107 -2
-224 -8 -260 -15 -58 -10 -74 -9 -148 11 -45 12 -82 26 -82 30 0 10 68 56 105
71 35 14 217 25 470 27 172 2 182 1 233 -23z m-848 -99 l305 -83 14 -36 c16
-44 3 -87 -34 -111 -21 -14 -46 -8 -329 70 -168 46 -308 84 -311 84 -10 0 -35
60 -35 84 0 24 50 76 73 76 7 0 149 -38 317 -84z m1024 -206 c-1 -84 -18 -133
-63 -183 -66 -74 -83 -77 -409 -84 -276 -6 -291 -5 -359 15 -120 37 -202 121
-227 235 -8 33 -3 33 87 8 47 -13 78 -28 98 -49 42 -43 90 -57 189 -55 137 2
362 21 400 33 19 7 53 32 76 56 30 33 57 50 110 68 97 34 99 33 98 -44z"/>
<path d="M2227 3441 c-120 -38 -220 -70 -222 -73 -4 -4 14 -64 40 -135 3 -8
22 -6 69 10 73 23 81 22 149 -37 l38 -32 -72 -125 c-40 -68 -72 -131 -71 -139
0 -8 14 -53 30 -99 l30 -85 91 182 c64 127 95 181 104 175 6 -4 66 -49 131
-100 66 -51 121 -92 122 -90 2 2 -10 45 -27 95 l-30 91 -145 108 c-79 59 -144
110 -144 114 0 3 43 18 95 34 87 26 95 30 89 49 -26 81 -42 120 -50 122 -5 2
-107 -28 -227 -65z"/>
<path d="M8630 3434 c-61 -35 -86 -59 -131 -127 -88 -135 -122 -339 -72 -432
29 -55 70 -91 122 -110 62 -22 110 -19 169 11 169 84 286 410 204 571 -53 103
-192 144 -292 87z m144 -149 c43 -20 75 -77 76 -131 0 -81 -60 -198 -119 -229
-42 -21 -119 -19 -158 5 -61 37 -82 99 -63 183 21 89 62 149 125 186 26 15 91
9 139 -14z"/>
<path d="M2545 2861 c-81 -21 -150 -85 -160 -148 -3 -21 -8 -45 -9 -54 -6 -31
15 -132 40 -192 73 -173 203 -297 313 -297 83 0 177 58 206 127 52 125 -32
370 -170 496 -62 56 -155 85 -220 68z m161 -162 c76 -36 133 -136 134 -231 0
-47 -5 -62 -26 -88 -85 -101 -220 -69 -292 70 -30 58 -33 72 -30 127 4 71 21
96 83 124 52 24 79 24 131 -2z"/>
<path d="M8561 2540 c-46 -88 -87 -160 -91 -160 -4 0 -82 36 -174 80 -92 45
-171 78 -177 75 -10 -7 -72 -125 -67 -130 10 -8 422 -205 424 -202 10 10 244
454 244 464 0 9 -50 33 -69 33 -3 0 -44 -72 -90 -160z"/>
<path d="M3020 2280 l-25 -19 63 -91 c35 -50 62 -93 60 -94 -1 -1 -76 -49
-165 -106 l-162 -104 36 -50 c20 -28 41 -57 48 -63 8 -10 47 10 174 93 90 58
167 101 170 96 121 -177 123 -178 175 -139 18 13 10 27 -153 255 -94 133 -177
242 -184 242 -6 0 -23 -9 -37 -20z"/>
<path d="M7796 2127 c-25 -36 -46 -69 -46 -75 0 -13 200 -473 210 -485 8 -9
100 104 100 123 0 6 -11 32 -24 59 l-25 48 37 50 c21 27 61 81 90 121 l52 71
62 -5 63 -6 49 66 c26 37 47 69 44 71 -2 2 -80 6 -173 10 -94 3 -220 8 -282
11 l-111 5 -46 -64z m267 -86 c17 -6 13 -14 -29 -71 -25 -36 -50 -69 -55 -74
-4 -5 -26 28 -48 73 l-41 81 77 -1 c43 0 86 -4 96 -8z"/>
<path d="M7442 1702 l-214 -207 27 -24 c35 -29 49 -22 135 64 l63 64 140 -134
140 -135 60 53 60 52 -142 135 -142 135 81 80 80 79 -22 23 c-12 13 -29 23
-37 23 -9 -1 -112 -94 -229 -208z"/>
<path d="M3262 1660 c-145 -26 -265 -49 -267 -51 -1 -2 21 -30 50 -62 l54 -58
61 12 62 12 104 -104 c57 -57 104 -111 104 -120 0 -9 -7 -36 -15 -59 l-15 -42
58 -63 c31 -34 60 -60 64 -56 3 3 36 123 73 265 l67 259 -58 58 c-32 33 -63
59 -69 58 -5 0 -128 -22 -273 -49z m248 -96 c0 -9 -43 -158 -47 -163 -4 -6
-133 121 -133 130 0 4 33 13 73 22 82 17 107 20 107 11z"/>
<path d="M7143 1429 l-62 -41 90 -116 c70 -92 85 -118 71 -120 -10 -2 -107 11
-215 28 l-198 30 -59 -40 c-33 -23 -60 -45 -60 -51 0 -5 62 -91 137 -189 l136
-180 26 17 c14 9 43 27 63 41 l37 24 -81 107 c-45 58 -86 112 -92 120 -9 12
-6 13 19 8 17 -3 114 -18 217 -33 l188 -27 56 39 c31 22 59 44 61 51 3 6 -39
69 -93 140 -54 70 -116 152 -138 181 -21 28 -39 52 -40 52 -1 0 -29 -19 -63
-41z"/>
<path d="M4030 1221 c-80 -25 -130 -74 -150 -149 -42 -159 173 -347 465 -408
115 -24 119 -22 170 72 l44 80 -150 75 -150 74 -19 -25 c-11 -14 -20 -31 -20
-37 0 -7 33 -29 73 -49 39 -20 73 -38 75 -39 2 -2 -2 -13 -8 -25 -11 -20 -17
-22 -62 -16 -87 12 -157 45 -215 100 -50 49 -53 55 -53 103 0 40 6 58 29 91
34 47 56 56 128 55 95 -2 208 -66 241 -137 19 -40 27 -46 83 -65 79 -26 79
-26 79 4 0 75 -86 162 -225 231 -135 66 -254 89 -335 65z"/>
<path d="M6445 1036 c-173 -40 -320 -135 -361 -232 -44 -105 18 -233 129 -270
95 -31 271 -4 403 64 113 57 194 159 194 241 -1 73 -60 159 -129 188 -49 21
-165 25 -236 9z m142 -112 c38 -28 68 -102 59 -146 -19 -104 -226 -193 -335
-143 -69 31 -101 127 -66 195 18 35 61 66 134 97 71 30 166 28 208 -3z"/>
<path d="M4788 926 c-79 -17 -146 -61 -176 -116 -33 -63 -28 -152 12 -204 119
-157 479 -220 634 -112 56 38 82 91 82 163 0 139 -126 233 -359 268 -112 17
-118 17 -193 1z m264 -102 c82 -26 128 -78 128 -146 0 -117 -138 -181 -286
-132 -126 42 -169 125 -118 226 37 72 146 93 276 52z"/>
<path d="M5595 859 c-49 -5 -123 -11 -162 -15 -68 -5 -73 -7 -68 -27 2 -12 12
-112 21 -222 9 -110 20 -204 24 -208 4 -5 42 -6 85 -2 l76 7 -5 37 c-3 20 -8
61 -11 92 l-6 56 41 7 c71 11 106 -3 221 -85 l109 -79 90 7 c50 3 90 9 90 13
0 13 -152 126 -204 152 l-50 25 40 13 c125 40 168 125 96 192 -15 14 -42 30
-61 37 -38 12 -191 13 -326 0z m244 -93 c23 -23 6 -63 -31 -75 -35 -11 -256
-36 -262 -30 -2 2 -6 27 -8 56 l-5 52 76 6 c42 3 87 8 101 9 44 7 114 -4 129
-18z"/>
</g>
</svg>
